<svg width="206" height="157" viewBox="0 0 206 157" fill="none" xmlns="http://www.w3.org/2000/svg">
<path d="M112.821 21.6386C118.662 26.1889 124.45 30.6917 130.231 35.2023C130.503 35.4142 131.02 35.5318 130.891 35.9827C130.741 36.5038 130.214 36.2883 129.846 36.2937C128.405 36.3145 126.964 36.2697 125.524 36.3136C124.703 36.3387 124.054 36.0785 123.411 35.5763C116.918 30.5044 110.403 25.4592 103.908 20.3892C103.413 20.0027 103.103 19.936 102.551 20.3642C97.045 24.6298 91.5091 28.8563 85.9805 33.0921C84.8377 33.9676 83.6901 34.837 82.543 35.7069C82.0813 36.057 81.59 36.3056 80.9804 36.3018C79.3054 36.2912 77.6303 36.3077 75.9552 36.3124C75.7202 36.3131 75.4875 36.3009 75.302 36.1182C75.1725 35.5743 75.6268 35.4334 75.9218 35.2055C79.3942 32.5224 82.8664 29.8389 86.3522 27.1733C86.9213 26.7381 87.1925 26.309 87.1561 25.5114C87.0588 23.3758 87.1282 21.2326 87.1294 19.0924C87.1297 18.6142 87.3304 18.332 87.8387 18.3156C88.7425 18.2862 89.6459 18.2423 90.5499 18.2183C91.2112 18.2006 91.5396 18.5303 91.5278 19.2001C91.5118 20.1039 91.5138 21.0081 91.4908 21.9117C91.4815 22.2758 91.3799 22.6465 91.7232 23.034C93.6248 21.569 95.5276 20.1045 97.4288 18.6378C99.1255 17.3288 100.83 16.0292 102.511 14.7002C103.04 14.2818 103.416 14.2623 103.985 14.7182C106.887 17.0411 109.835 19.3068 112.821 21.6386Z" fill="#0E4466"/>
<path d="M75.6809 83.1704C75.6831 84.2089 75.6906 85.1472 75.6852 86.0854C75.682 86.6532 75.9332 86.9837 76.516 86.9871C77.9852 86.9957 79.4544 86.9899 81.0592 86.9899C80.3058 85.5596 79.4688 84.2781 80.005 82.6704C80.3577 81.6131 80.928 80.7365 81.8598 80.1252C84.0659 78.6779 86.7925 78.8793 88.7598 80.4702C90.6403 81.9908 90.7889 83.7845 89.326 86.9056C90.5771 87.1147 91.8016 86.9894 93.0128 86.9973C94.9348 87.0099 94.9344 86.9831 94.9377 85.0787C94.9392 84.1739 94.948 83.2692 94.9456 82.3644C94.9441 81.7909 95.1895 81.5092 95.7931 81.5103C98.6808 81.5158 98.2468 81.2581 98.2176 83.7756C98.1721 87.6793 98.6759 86.9255 101.3 87.0138C101.567 87.0228 101.832 87.0785 102.099 87.0884C102.817 87.1153 103.247 86.8318 103.247 86.0437C103.248 82.6977 103.26 79.3517 103.266 76.0057C103.266 75.9056 103.245 75.8057 103.241 75.7053C103.142 73.4804 103.39 73.2561 105.603 73.4657C106.183 73.5206 106.45 73.7798 106.449 74.3532C106.442 78.4749 106.482 82.5973 106.415 86.718C106.385 88.5099 105.171 89.7558 103.432 89.7577C101.411 89.7599 99.3341 90.1762 97.3861 89.2458C97.1838 89.1491 96.9897 89.1797 96.8128 89.2937C95.9409 89.8556 94.9629 89.8026 93.9896 89.7998C91.912 89.7937 89.8184 89.9558 87.7614 89.7497C85.9347 89.5667 84.1701 89.5674 82.3402 89.7472C80.0503 89.9722 77.7212 89.8031 75.409 89.7912C74.6281 89.7872 73.8488 89.6885 73.2403 89.1453C72.7962 88.7489 72.4402 89.035 72.0454 89.1808C68.9493 90.3242 66.002 88.7882 65.2826 85.6585C64.655 82.9282 66.9344 79.869 69.737 79.7585C71.3764 79.6938 73.0205 79.7594 74.6624 79.7481C75.3633 79.7432 75.7207 80.0048 75.6844 80.7584C75.6474 81.5273 75.6791 82.2994 75.6809 83.1704ZM72.244 86.2496C72.5584 85.5436 72.3768 84.7994 72.3912 84.0748C72.4255 82.3536 72.1292 82.1251 70.4088 82.4363C70.2781 82.46 70.1504 82.5032 70.0231 82.5428C68.8026 82.9227 68.2549 83.9007 68.5255 85.2146C68.7647 86.3763 69.5164 86.8952 70.8071 86.7963C71.283 86.7598 71.7206 86.614 72.244 86.2496ZM83.2502 84.535C83.4801 85.5829 83.9913 86.5246 85.0904 86.6704C85.9775 86.788 86.4539 85.9447 86.8113 85.2092C87.2558 84.2946 87.2462 83.3782 86.5597 82.5815C85.9927 81.9234 85.2026 81.8236 84.4417 82.107C83.4157 82.4891 83.1585 83.3776 83.2502 84.535Z" fill="#0E4466"/>
<path d="M123.316 50.1777C123.318 55.0044 123.3 59.7305 123.337 64.4563C123.344 65.3963 122.982 65.6886 122.093 65.6842C116.664 65.6578 111.234 65.6552 105.804 65.6634C105.034 65.6646 104.605 65.4873 104.677 64.5815C104.742 63.7517 104.667 62.9081 104.618 62.0726C104.568 61.2369 104.943 60.9702 105.757 60.9759C109.678 61.0036 113.6 60.9874 117.521 60.9864C118.752 60.9862 118.772 60.9147 118.804 59.6704C118.948 54.0752 118.53 48.4811 118.789 42.8863C118.83 42.0115 118.567 41.3627 117.793 40.7775C114.962 38.6359 112.215 36.3839 109.415 34.1997C108.864 33.7697 108.746 33.4393 109.305 32.932C109.875 32.4152 110.406 31.8521 110.922 31.2812C111.275 30.8911 111.554 30.94 111.945 31.2454C115.509 34.0267 119.079 36.8006 122.668 39.5489C123.229 39.9787 123.328 40.5008 123.326 41.1279C123.316 44.1109 123.318 47.094 123.316 50.1777Z" fill="#D8B686"/>
<path d="M83.052 48.3671C83.052 45.7855 83.0687 43.3044 83.0412 40.8237C83.0337 40.1499 83.2432 39.6803 83.8206 39.3196C84.9689 38.6025 85.9796 37.6662 87.1773 37.0867C87.6555 37.4635 87.5296 37.8964 87.5297 38.2792C87.5322 45.4203 87.5265 52.5614 87.5193 59.7024C87.518 60.9714 87.5236 60.9941 88.8008 60.9916C92.9243 60.9836 97.048 60.9829 101.171 60.9392C101.877 60.9317 102.139 61.1368 102.118 61.8473C102.091 62.8152 102.136 63.7859 102.171 64.7547C102.204 65.6509 101.615 65.6768 100.965 65.6762C96.1708 65.6714 91.3766 65.6739 86.5823 65.6731C85.8112 65.673 85.0365 65.6201 84.27 65.6779C83.341 65.7479 83.0381 65.3728 83.0427 64.4598C83.0697 59.1292 83.0536 53.7984 83.052 48.3671Z" fill="#0E4466"/>
<path d="M109.755 52.8818C110.072 53.846 110.355 54.7358 110.662 55.6174C110.923 56.3708 110.666 56.6526 109.881 56.6477C106.802 56.6287 103.722 56.6423 100.643 56.6416C99.3374 56.6413 98.0318 56.6459 96.7266 56.629C95.7334 56.6161 95.586 56.3896 95.8763 55.4895C96.6233 53.1738 97.0362 50.7554 98.0194 48.5124C98.1797 48.1467 97.9866 47.8803 97.8183 47.5841C96.3636 45.0233 96.7625 42.2906 98.8753 40.2708C100.996 38.2434 103.997 37.9428 106.442 39.5129C109.474 41.4597 110.273 44.5047 108.556 47.673C108.325 48.0992 108.305 48.446 108.489 48.8947C109.008 50.1618 109.492 51.4454 109.755 52.8818ZM104.835 44.4222C103.843 43.2909 102.864 43.1571 101.914 44.0234C100.995 44.8612 100.947 46.0781 101.914 47.0374C102.428 47.5472 102.475 47.9603 102.254 48.6206C101.772 50.0561 101.166 51.4686 100.998 53.0871C102.547 53.1514 104 53.1735 105.596 53.0554C105.273 51.7629 105.003 50.568 104.67 49.3912C104.383 48.3754 103.958 47.432 104.957 46.4854C105.514 45.9567 105.375 45.1847 104.835 44.4222Z" fill="#BBBBBB"/>
<path d="M142.145 89.461C141.835 89.8005 141.493 89.7927 141.16 89.7931C138.617 89.7964 136.073 89.8062 133.53 89.7911C132.398 89.7844 132.361 89.6655 132.329 88.2507C132.309 87.3362 132.579 86.8895 133.584 86.9304C135.088 86.9916 136.596 86.9288 138.101 86.9527C138.732 86.9627 139.002 86.7398 139.01 86.0827C139.039 83.5112 138.302 82.1814 135.639 81.9555C134.563 81.8641 134.409 81.5455 134.69 80.4823C135.178 78.633 135.178 78.633 136.983 79.0065C140.49 79.7323 142.029 81.4645 142.232 85.0738C142.313 86.5049 142.21 87.9464 142.145 89.461Z" fill="#0E4466"/>
<path d="M120.224 94.4433C119.969 94.4564 119.802 94.4655 119.635 94.4634C118.136 94.4438 117.396 93.3148 117.969 91.9318C118.11 91.5908 118.35 91.503 118.692 91.5691C120.698 91.9575 121.651 90.8288 121.66 88.848C121.672 86.2708 121.662 83.6936 121.664 81.1164C121.665 79.7768 121.69 79.752 122.986 79.741C123.221 79.739 123.457 79.7597 123.689 79.7373C124.639 79.6456 124.989 80.0479 124.969 81.0149C124.917 83.5911 124.97 86.1692 124.941 88.746C124.906 91.7585 123.567 93.9415 120.224 94.4433Z" fill="#0E4466"/>
<path d="M112.288 75.1489C112.287 79.6381 112.291 84.0298 112.276 88.4214C112.275 88.889 112.477 89.5635 111.795 89.6868C110.955 89.8386 110.058 90.01 109.252 89.5431C108.975 89.3828 109.049 88.998 109.048 88.6995C109.04 83.9727 109.041 79.2459 109.02 74.5192C109.016 73.7353 109.356 73.4121 110.115 73.4647C110.315 73.4786 110.517 73.4638 110.718 73.4646C112.259 73.4707 112.262 73.4737 112.288 75.1489Z" fill="#0E4466"/>
<path d="M127.367 80.9818C127.408 78.6769 127.547 76.4685 127.414 74.2581C127.406 74.1266 127.375 73.9475 127.444 73.8681C128.172 73.0299 129.134 73.5941 129.984 73.4863C130.498 73.4211 130.627 73.8661 130.626 74.311C130.616 79.1688 130.601 84.0266 130.603 88.8844C130.603 89.4871 130.32 89.6991 129.766 89.7707C127.637 90.046 127.477 89.909 127.46 87.8068C127.442 85.5636 127.399 83.3206 127.367 80.9818Z" fill="#0E4466"/>
<path d="M97.8184 80.4207C96.452 79.9597 96.1346 79.1491 96.6942 77.7195C96.4194 77.4695 96.099 77.5519 95.7739 77.581C96.392 79.0205 96.1525 80.0148 95.1183 80.3646C94.1065 80.7068 93.117 80.1704 92.8491 79.1344C92.5879 78.1242 93.3119 77.3442 94.8869 77.0024C94.5649 75.9894 94.5052 74.9946 95.64 74.44C96.2608 74.1365 96.8767 74.2661 97.3973 74.7644C98.0836 75.4215 98.1516 76.1421 97.5766 76.993C98.3462 77.1947 99.1704 77.2045 99.5129 78.0565C99.6372 78.3658 99.8418 78.6368 99.781 78.9989C99.6321 79.8856 98.9825 80.3821 97.8184 80.4207Z" fill="#0E4466"/>
<path d="M70.7468 74.7563C71.5153 75.8242 71.4243 76.8066 70.5594 77.4416C69.8329 77.9749 68.8531 77.7786 68.2756 76.9839C67.7103 76.206 67.8655 75.1399 68.6539 74.5921C69.3485 74.1094 70.0363 74.2177 70.7468 74.7563Z" fill="#0E4466"/>
<path d="M74.5031 77.2086C73.4723 77.9253 72.7921 77.9066 72.1318 77.2027C71.4788 76.5066 71.4225 75.7313 71.9741 75.0325C72.5855 74.258 73.4582 74.0729 74.1829 74.5642C75.1393 75.2125 75.2615 76.0602 74.5031 77.2086Z" fill="#0E4466"/>
<path d="M83.73 74.3906C83.9411 74.5115 84.0953 74.5862 84.2126 74.6992C84.9606 75.4198 85.112 76.2134 84.5923 76.9258C84.1299 77.5595 83.5299 77.9506 82.6998 77.6472C81.9154 77.3604 81.3639 76.4915 81.4882 75.7763C81.635 74.9323 82.417 74.3202 83.3606 74.3164C83.459 74.316 83.5576 74.3461 83.73 74.3906Z" fill="#0E4466"/>
<path d="M87.0454 74.3093C88.273 74.8434 88.7771 75.7237 88.4053 76.5525C88 77.4561 87.2063 77.9162 86.4212 77.7026C85.6755 77.4997 85.0186 76.6105 85.0892 75.8997C85.1736 75.0506 85.9296 74.4067 87.0454 74.3093Z" fill="#0E4466"/>
</svg>
