<svg width="104" height="104" viewBox="0 0 104 104" fill="none" xmlns="http://www.w3.org/2000/svg">
<path d="M61.5786 19.2573C67.5343 23.8076 73.4352 28.3103 79.3298 32.821C79.6067 33.0329 80.1343 33.1505 80.0025 33.6014C79.8502 34.1224 79.3127 33.907 78.9371 33.9123C77.4686 33.9331 75.9986 33.8884 74.5311 33.9323C73.6931 33.9573 73.0322 33.6971 72.3765 33.1949C65.7555 28.1231 59.1132 23.0779 52.4908 18.0078C51.9859 17.6213 51.6703 17.5547 51.1067 17.9829C45.4932 22.2484 39.8488 26.4749 34.2117 30.7107C33.0465 31.5863 31.8764 32.4557 30.7068 33.3256C30.236 33.6757 29.7351 33.9243 29.1136 33.9204C27.4058 33.9099 25.6978 33.9263 23.9898 33.9311C23.7503 33.9317 23.513 33.9196 23.3238 33.7368C23.1918 33.1929 23.655 33.052 23.9558 32.8241C27.4963 30.141 31.0366 27.4576 34.5907 24.7919C35.171 24.3567 35.4475 23.9277 35.4104 23.1301C35.3111 20.9944 35.3819 18.8512 35.3831 16.711C35.3834 16.2329 35.588 15.9507 36.1063 15.9342C37.0279 15.9049 37.949 15.861 38.8707 15.8369C39.545 15.8193 39.8798 16.149 39.8678 16.8187C39.8515 17.7226 39.8535 18.6268 39.8301 19.5303C39.8206 19.8945 39.717 20.2651 40.067 20.6527C42.0059 19.1877 43.946 17.7231 45.8845 16.2564C47.6145 14.9475 49.352 13.6478 51.0659 12.3189C51.6055 11.9005 51.9888 11.881 52.5694 12.3368C55.5282 14.6597 58.5336 16.9255 61.5786 19.2573Z" fill="#EDF7FD"/>
<path d="M23.7091 80.789C23.7114 81.8276 23.719 82.7659 23.7135 83.7041C23.7102 84.2719 23.9663 84.6024 24.5606 84.6058C26.0586 84.6143 27.5566 84.6086 29.1929 84.6086C28.4246 83.1782 27.5713 81.8967 28.118 80.2891C28.4777 79.2317 29.0591 78.3551 30.0092 77.7438C32.2586 76.2965 35.0386 76.4979 37.0444 78.0888C38.9618 79.6095 39.1134 81.4032 37.6218 84.5242C38.8974 84.7333 40.1459 84.6081 41.3808 84.616C43.3406 84.6286 43.3401 84.6017 43.3435 82.6973C43.3451 81.7926 43.354 80.8878 43.3516 79.9831C43.35 79.4096 43.6002 79.1279 44.2157 79.129C47.16 79.1344 46.7175 78.8768 46.6877 81.3943C46.6414 85.2979 47.155 84.5442 49.8308 84.6324C50.1029 84.6414 50.3732 84.6971 50.6453 84.7071C51.3775 84.7339 51.8158 84.4504 51.816 83.6624C51.8166 80.3164 51.8286 76.9704 51.8349 73.6244C51.835 73.5243 51.8141 73.4243 51.8096 73.324C51.7082 71.0991 51.962 70.8747 54.2179 71.0843C54.809 71.1393 55.0814 71.3984 55.0804 71.9719C55.0737 76.0936 55.1144 80.216 55.0455 84.3366C55.0155 86.1286 53.7776 87.3744 52.0041 87.3763C49.9439 87.3786 47.826 87.7948 45.8399 86.8644C45.6336 86.7678 45.4357 86.7983 45.2554 86.9123C44.3663 87.4743 43.3692 87.4212 42.3768 87.4184C40.2584 87.4124 38.1239 87.5744 36.0265 87.3684C34.164 87.1853 32.3648 87.1861 30.499 87.3659C28.1642 87.5908 25.7894 87.4218 23.4319 87.4099C22.6356 87.4059 21.8411 87.3072 21.2206 86.764C20.7678 86.3675 20.4049 86.6536 20.0023 86.7994C16.8455 87.9428 13.8404 86.4068 13.1069 83.2771C12.467 80.5469 14.7911 77.4876 17.6487 77.3771C19.3202 77.3125 20.9966 77.3781 22.6706 77.3667C23.3852 77.3619 23.7497 77.6234 23.7127 78.3771C23.6749 79.1459 23.7072 79.9181 23.7091 80.789ZM20.2048 83.8682C20.5254 83.1623 20.3402 82.4181 20.3549 81.6935C20.3898 79.9723 20.0878 79.7438 18.3336 80.055C18.2003 80.0786 18.0702 80.1218 17.9403 80.1615C16.696 80.5414 16.1375 81.5194 16.4134 82.8332C16.6573 83.995 17.4237 84.5138 18.7397 84.415C19.2249 84.3785 19.6712 84.2326 20.2048 83.8682ZM31.4268 82.1536C31.6612 83.2015 32.1824 84.1433 33.3031 84.289C34.2076 84.4067 34.6934 83.5633 35.0578 82.8278C35.5109 81.9132 35.5011 80.9968 34.8013 80.2002C34.2231 79.5421 33.4176 79.4423 32.6417 79.7257C31.5955 80.1077 31.3334 80.9963 31.4268 82.1536Z" fill="#EDF7FD"/>
<path d="M72.2782 47.7964C72.2795 52.623 72.2614 57.3492 72.299 62.075C72.3065 63.015 71.9371 63.3072 71.0313 63.3029C65.4951 63.2764 59.9587 63.2739 54.4224 63.2821C53.6373 63.2833 53.2005 63.1059 53.2732 62.2001C53.3398 61.3703 53.2631 60.5267 53.2128 59.6913C53.1626 58.8556 53.545 58.5888 54.3743 58.5946C58.3726 58.6222 62.3712 58.606 66.3697 58.6051C67.6242 58.6048 67.6448 58.5334 67.6775 57.289C67.8246 51.6939 67.3976 46.0997 67.6626 40.5049C67.7041 39.6302 67.4357 38.9813 66.647 38.3962C63.7603 36.2546 60.9591 34.0026 58.1048 31.8184C57.5428 31.3883 57.422 31.0579 57.9922 30.5507C58.5731 30.0338 59.1143 29.4708 59.6412 28.8998C60.0012 28.5097 60.2849 28.5586 60.6839 28.864C64.3177 31.6453 67.9574 34.4192 71.6171 37.1676C72.1894 37.5974 72.29 38.1195 72.2879 38.7465C72.278 41.7296 72.2804 44.7127 72.2782 47.7964Z" fill="#EDF7FD"/>
<path d="M31.2257 45.9859C31.2257 43.4043 31.2427 40.9232 31.2147 38.4425C31.2071 37.7687 31.4207 37.299 32.0094 36.9384C33.1802 36.2212 34.2107 35.285 35.4319 34.7054C35.9195 35.0823 35.7911 35.5152 35.7912 35.898C35.7938 43.0391 35.7879 50.1801 35.7806 57.3212C35.7793 58.5902 35.785 58.6128 37.0872 58.6104C41.2916 58.6024 45.4961 58.6017 49.7001 58.5579C50.4195 58.5505 50.6865 58.7555 50.666 59.4661C50.6382 60.434 50.6835 61.4047 50.7199 62.3734C50.7536 63.2696 50.1525 63.2956 49.4901 63.295C44.6018 63.2902 39.7135 63.2927 34.8252 63.2919C34.039 63.2918 33.2491 63.2389 32.4676 63.2966C31.5204 63.3667 31.2115 62.9916 31.2162 62.0786C31.2438 56.748 31.2274 51.4172 31.2257 45.9859Z" fill="#EDF7FD"/>
<path d="M58.4524 50.5004C58.7754 51.4647 59.0639 52.3544 59.3763 53.236C59.6434 53.9895 59.3807 54.2712 58.5808 54.2664C55.441 54.2473 52.301 54.261 49.1611 54.2603C47.8301 54.26 46.499 54.2646 45.1681 54.2476C44.1555 54.2347 44.0052 54.0082 44.3012 53.1082C45.0628 50.7925 45.4838 48.374 46.4863 46.131C46.6497 45.7654 46.4528 45.499 46.2812 45.2027C44.798 42.642 45.2047 39.9093 47.3589 37.8895C49.5212 35.8621 52.5813 35.5615 55.0744 37.1315C58.1658 39.0784 58.9798 42.1234 57.229 45.2916C56.9935 45.7179 56.9735 46.0646 57.1611 46.5134C57.6907 47.7805 58.1841 49.064 58.4524 50.5004ZM53.435 42.0408C52.4241 40.9095 51.4255 40.7758 50.4572 41.642C49.5207 42.4798 49.4709 43.6968 50.4575 44.6561C50.9817 45.1659 51.0295 45.5789 50.8035 46.2392C50.3121 47.6748 49.6946 49.0873 49.5237 50.7058C51.1029 50.77 52.5841 50.7922 54.2116 50.674C53.8819 49.3816 53.6072 48.1867 53.2675 47.0098C52.9743 45.994 52.5418 45.0507 53.5595 44.104C54.1278 43.5754 53.9863 42.8034 53.435 42.0408Z" fill="#EDF7FD"/>
<path d="M91.4778 87.0796C91.161 87.419 90.8128 87.4112 90.4727 87.4117C87.8797 87.415 85.2868 87.4248 82.6939 87.4096C81.539 87.4029 81.5016 87.284 81.4691 85.8692C81.4481 84.9547 81.7238 84.508 82.7489 84.549C84.2816 84.6102 85.8191 84.5473 87.354 84.5712C87.9975 84.5812 88.2729 84.3584 88.2806 83.7012C88.3109 81.1298 87.5591 79.7999 84.8442 79.574C83.7468 79.4826 83.5894 79.164 83.8758 78.1009C84.374 76.2515 84.374 76.2515 86.2146 76.6251C89.7904 77.3508 91.3589 79.083 91.5665 82.6923C91.6488 84.1234 91.5435 85.5649 91.4778 87.0796Z" fill="#EDF7FD"/>
<path d="M69.1258 92.0619C68.8657 92.075 68.695 92.0842 68.5246 92.082C66.9961 92.0624 66.2423 90.9334 66.8261 89.5504C66.97 89.2094 67.215 89.1216 67.5634 89.1878C69.6083 89.5761 70.5805 88.4475 70.5896 86.4666C70.6014 83.8895 70.5918 81.3122 70.5933 78.7351C70.5942 77.3954 70.6201 77.3706 71.9418 77.3597C72.1806 77.3577 72.4214 77.3784 72.6581 77.356C73.6274 77.2643 73.9833 77.6665 73.9635 78.6335C73.9108 81.2097 73.9648 83.7878 73.9344 86.3647C73.8989 89.3772 72.534 91.5602 69.1258 92.0619Z" fill="#EDF7FD"/>
<path d="M61.0353 72.7675C61.0342 77.2567 61.0384 81.6484 61.023 86.0401C61.0214 86.5077 61.2275 87.1821 60.532 87.3054C59.6759 87.4572 58.7612 87.6286 57.9393 87.1617C57.6571 87.0014 57.7324 86.6166 57.7318 86.3182C57.723 81.5914 57.7245 76.8646 57.7024 72.1378C57.6988 71.3539 58.0457 71.0307 58.8191 71.0834C59.0231 71.0973 59.2291 71.0825 59.4342 71.0833C61.0055 71.0894 61.0083 71.0923 61.0353 72.7675Z" fill="#EDF7FD"/>
<path d="M76.4082 78.6003C76.4501 76.2955 76.5917 74.0871 76.4559 71.8766C76.4478 71.7452 76.4164 71.5661 76.4867 71.4866C77.2287 70.6484 78.2098 71.2127 79.0767 71.1048C79.6003 71.0397 79.732 71.4846 79.7311 71.9295C79.7212 76.7873 79.7052 81.6451 79.7075 86.5029C79.7078 87.1056 79.4193 87.3176 78.8545 87.3893C76.6832 87.6645 76.5199 87.5275 76.5026 85.4254C76.4841 83.1822 76.4405 80.9391 76.4082 78.6003Z" fill="#EDF7FD"/>
<path d="M46.2815 78.0392C44.8883 77.5782 44.5647 76.7677 45.1352 75.338C44.8551 75.088 44.5284 75.1704 44.1968 75.1995C44.8271 76.639 44.5829 77.6333 43.5285 77.9831C42.4968 78.3253 41.4879 77.7889 41.2148 76.7529C40.9484 75.7427 41.6866 74.9628 43.2925 74.6209C42.9642 73.6079 42.9033 72.6131 44.0603 72.0585C44.6934 71.755 45.3214 71.8846 45.8521 72.3829C46.5519 73.04 46.6212 73.7606 46.0349 74.6115C46.8196 74.8132 47.66 74.8231 48.0092 75.6751C48.136 75.9843 48.3445 76.2554 48.2825 76.6175C48.1307 77.5041 47.4684 78.0007 46.2815 78.0392Z" fill="#EDF7FD"/>
<path d="M18.6783 72.3748C19.4618 73.4427 19.3691 74.4251 18.4871 75.0601C17.7464 75.5935 16.7474 75.3971 16.1586 74.6024C15.5822 73.8245 15.7405 72.7585 16.5444 72.2106C17.2526 71.7279 17.9538 71.8362 18.6783 72.3748Z" fill="#EDF7FD"/>
<path d="M22.509 74.8273C21.458 75.5439 20.7644 75.5252 20.0912 74.8213C19.4254 74.1253 19.3679 73.3499 19.9303 72.6511C20.5537 71.8766 21.4436 71.6916 22.1825 72.1828C23.1576 72.8312 23.2822 73.6789 22.509 74.8273Z" fill="#EDF7FD"/>
<path d="M31.917 72.0091C32.1322 72.13 32.2894 72.2048 32.409 72.3178C33.1717 73.0384 33.3261 73.8319 32.7962 74.5443C32.3247 75.178 31.713 75.5691 30.8666 75.2657C30.0668 74.979 29.5045 74.1101 29.6313 73.3948C29.7809 72.5509 30.5783 71.9387 31.5404 71.9349C31.6407 71.9345 31.7412 71.9647 31.917 72.0091Z" fill="#EDF7FD"/>
<path d="M35.2961 71.928C36.5479 72.4621 37.0618 73.3424 36.6828 74.1711C36.2695 75.0748 35.4602 75.5348 34.6597 75.3212C33.8994 75.1183 33.2296 74.2292 33.3016 73.5184C33.3876 72.6693 34.1585 72.0254 35.2961 71.928Z" fill="#EDF7FD"/>
</svg>
