<svg width="44" height="44" viewBox="0 0 44 44" fill="none" xmlns="http://www.w3.org/2000/svg">
<g filter="url(#filter0_d_44_8215)">
<rect x="4" y="4" width="36" height="36" rx="18" fill="#065C16" fill-opacity="0.48" shape-rendering="crispEdges"/>
<path d="M21.5421 12.8366C21.4251 12.8323 21.3079 12.8323 21.1908 12.8366C20.418 12.8649 19.7221 13.1277 18.9591 13.5652C18.2155 13.9915 17.3595 14.6134 16.2734 15.4026L16.2733 15.4026L16.2143 15.4455L16.2143 15.4455C15.1281 16.2346 14.2721 16.8566 13.6369 17.432C12.9851 18.0225 12.5201 18.6031 12.2543 19.3293C12.214 19.4393 12.1778 19.5508 12.1457 19.6635C11.9339 20.4072 11.9688 21.1503 12.149 22.0111C12.3247 22.85 12.6517 23.8563 13.0666 25.1332L13.0666 25.1332L14.512 29.5819C14.8236 30.5407 15.7171 31.1899 16.7253 31.1899C18.0106 31.1899 19.0525 30.148 19.0525 28.8627V26.5719C19.0525 26.035 19.4878 25.5998 20.0247 25.5998H22.7082C23.2451 25.5998 23.6804 26.035 23.6804 26.5719V28.8627C23.6804 30.148 24.7223 31.1899 26.0076 31.1899C27.0158 31.1899 27.9093 30.5407 28.2209 29.5819L29.6664 25.1331C30.0812 23.8563 30.4082 22.85 30.5839 22.0111C30.7641 21.1503 30.799 20.4072 30.5872 19.6635C30.5551 19.5508 30.5189 19.4394 30.4786 19.3293C30.1654 18.875 29.2831 19.2917 29.3048 19.7589C29.3345 19.8402 29.3613 19.9226 29.385 20.0059C29.521 20.4834 29.5176 21.0042 29.3604 21.7549C29.2002 22.52 28.8949 23.4624 28.4663 24.7816L27.0321 29.1956C26.8879 29.6394 26.4743 29.9399 26.0076 29.9399C25.4127 29.9399 24.9304 29.4576 24.9304 28.8627V26.5719C24.9304 25.3447 23.9355 24.3498 22.7082 24.3498H20.0247C18.7974 24.3498 17.8025 25.3447 17.8025 26.5719V28.8627C17.8025 29.4576 17.3203 29.9399 16.7253 29.9399C16.2587 29.9399 15.8451 29.6394 15.7009 29.1956L14.2667 24.7816C13.838 23.4624 13.5327 22.52 13.3725 21.7549C13.2153 21.0042 13.2119 20.4834 13.3479 20.0059C13.3716 19.9226 13.3984 19.8402 13.4282 19.7589C13.5988 19.2926 13.9076 18.8734 14.4761 18.3584C15.0554 17.8336 15.8564 17.2506 16.9785 16.4353C18.1007 15.62 18.9027 15.0384 19.5808 14.6496C20.2462 14.2681 20.7404 14.104 21.2366 14.0858C21.3232 14.0826 21.4098 14.0826 21.4963 14.0858C21.9925 14.104 22.4867 14.2681 23.1521 14.6496C23.7738 14.8841 24.1762 14.0858 23.7738 13.5652C23.0108 13.1277 22.3149 12.8649 21.5421 12.8366Z" fill="#1BE440"/>
<path d="M30.1654 14.7086C30.3957 14.4514 30.3739 14.0563 30.1167 13.8261C29.8595 13.5958 29.4644 13.6177 29.2341 13.8748L26.4265 17.0108C25.8576 17.6463 25.4745 18.0719 25.1469 18.3473C24.8348 18.6095 24.6516 18.6667 24.4915 18.6667C24.3314 18.6667 24.1481 18.6095 23.836 18.3473C23.5085 18.0719 23.1253 17.6462 22.5564 17.0108L21.8321 16.2018C21.6019 15.9446 21.2067 15.9228 20.9496 16.153C20.6924 16.3833 20.6706 16.7784 20.9008 17.0356L21.6561 17.8791C22.1859 18.471 22.6279 18.9647 23.0318 19.3042C23.459 19.6632 23.9197 19.9167 24.4915 19.9167C25.0632 19.9167 25.524 19.6632 25.9512 19.3042L27.3268 17.8792L30.1654 14.7086Z" fill="#1BE440"/>
<path d="M21.5421 12.8366C21.4251 12.8323 21.3079 12.8323 21.1908 12.8366C20.418 12.8649 19.7221 13.1277 18.9591 13.5652C18.2155 13.9915 17.3595 14.6134 16.2734 15.4026L16.2733 15.4026L16.2143 15.4455L16.2143 15.4455C15.1281 16.2346 14.2721 16.8566 13.6369 17.432C12.9851 18.0225 12.5201 18.6031 12.2543 19.3293C12.214 19.4393 12.1778 19.5508 12.1457 19.6635C11.9339 20.4072 11.9688 21.1503 12.149 22.0111C12.3247 22.85 12.6517 23.8563 13.0666 25.1332L13.0666 25.1332L14.512 29.5819C14.8236 30.5407 15.7171 31.1899 16.7253 31.1899C18.0106 31.1899 19.0525 30.148 19.0525 28.8627V26.5719C19.0525 26.035 19.4878 25.5998 20.0247 25.5998H22.7082C23.2451 25.5998 23.6804 26.035 23.6804 26.5719V28.8627C23.6804 30.148 24.7223 31.1899 26.0076 31.1899C27.0158 31.1899 27.9093 30.5407 28.2209 29.5819L29.6664 25.1331C30.0812 23.8563 30.4082 22.85 30.5839 22.0111C30.7641 21.1503 30.799 20.4072 30.5872 19.6635C30.5551 19.5508 30.5189 19.4394 30.4786 19.3293C30.1654 18.875 29.2831 19.2917 29.3048 19.7589C29.3345 19.8402 29.3613 19.9226 29.385 20.0059C29.521 20.4834 29.5176 21.0042 29.3604 21.7549C29.2002 22.52 28.8949 23.4624 28.4663 24.7816L27.0321 29.1956C26.8879 29.6394 26.4743 29.9399 26.0076 29.9399C25.4127 29.9399 24.9304 29.4576 24.9304 28.8627V26.5719C24.9304 25.3447 23.9355 24.3498 22.7082 24.3498H20.0247C18.7974 24.3498 17.8025 25.3447 17.8025 26.5719V28.8627C17.8025 29.4576 17.3203 29.9399 16.7253 29.9399C16.2587 29.9399 15.8451 29.6394 15.7009 29.1956L14.2667 24.7816C13.838 23.4624 13.5327 22.52 13.3725 21.7549C13.2153 21.0042 13.2119 20.4834 13.3479 20.0059C13.3716 19.9226 13.3984 19.8402 13.4282 19.7589C13.5988 19.2926 13.9076 18.8734 14.4761 18.3584C15.0554 17.8336 15.8564 17.2506 16.9785 16.4353C18.1007 15.62 18.9027 15.0384 19.5808 14.6496C20.2462 14.2681 20.7404 14.104 21.2366 14.0858C21.3232 14.0826 21.4098 14.0826 21.4963 14.0858C21.9925 14.104 22.4867 14.2681 23.1521 14.6496C23.7738 14.8841 24.1762 14.0858 23.7738 13.5652C23.0108 13.1277 22.3149 12.8649 21.5421 12.8366Z" stroke="#1BE440"/>
<path d="M30.1654 14.7086C30.3957 14.4514 30.3739 14.0563 30.1167 13.8261C29.8595 13.5958 29.4644 13.6177 29.2341 13.8748L26.4265 17.0108C25.8576 17.6463 25.4745 18.0719 25.1469 18.3473C24.8348 18.6095 24.6516 18.6667 24.4915 18.6667C24.3314 18.6667 24.1481 18.6095 23.836 18.3473C23.5085 18.0719 23.1253 17.6462 22.5564 17.0108L21.8321 16.2018C21.6019 15.9446 21.2067 15.9228 20.9496 16.153C20.6924 16.3833 20.6706 16.7784 20.9008 17.0356L21.6561 17.8791C22.1859 18.471 22.6279 18.9647 23.0318 19.3042C23.459 19.6632 23.9197 19.9167 24.4915 19.9167C25.0632 19.9167 25.524 19.6632 25.9512 19.3042L27.3268 17.8792L30.1654 14.7086Z" stroke="#1BE440"/>
</g>
<defs>
<filter id="filter0_d_44_8215" x="0" y="0" width="44" height="44" filterUnits="userSpaceOnUse" color-interpolation-filters="sRGB">
<feFlood flood-opacity="0" result="BackgroundImageFix"/>
<feColorMatrix in="SourceAlpha" type="matrix" values="0 0 0 0 0 0 0 0 0 0 0 0 0 0 0 0 0 0 127 0" result="hardAlpha"/>
<feOffset/>
<feGaussianBlur stdDeviation="2"/>
<feComposite in2="hardAlpha" operator="out"/>
<feColorMatrix type="matrix" values="0 0 0 0 0.793469 0 0 0 0 0.986531 0 0 0 0 0.828864 0 0 0 0.4 0"/>
<feBlend mode="normal" in2="BackgroundImageFix" result="effect1_dropShadow_44_8215"/>
<feBlend mode="normal" in="SourceGraphic" in2="effect1_dropShadow_44_8215" result="shape"/>
</filter>
</defs>
</svg>
