<svg width="20" height="20" viewBox="0 0 20 20" fill="none" xmlns="http://www.w3.org/2000/svg">
<g clip-path="url(#clip0_44_12888)">
<path d="M16.3631 14.4697C16.0702 14.1768 15.5953 14.1768 15.3024 14.4697C15.0095 14.7626 15.0095 15.2374 15.3024 15.5303L15.8327 15L16.3631 14.4697ZM18.6356 18.8636C18.9285 19.1565 19.4034 19.1565 19.6963 18.8636C19.9892 18.5707 19.9892 18.0958 19.6963 17.803L19.166 18.3333L18.6356 18.8636ZM7.79817 4.12531C8.20728 4.06052 8.48641 3.67633 8.42161 3.26722C8.35681 2.85811 7.97263 2.57898 7.56352 2.64378L7.68084 3.38455L7.79817 4.12531ZM3.47652 6.73078C3.41172 7.13989 3.69085 7.52407 4.09996 7.58887C4.50907 7.65367 4.89325 7.37454 4.95805 6.96543L4.21729 6.8481L3.47652 6.73078ZM15.8327 15L15.3024 15.5303L18.6356 18.8636L19.166 18.3333L19.6963 17.803L16.3631 14.4697L15.8327 15ZM9.16602 15.8333V15.0833C5.43809 15.0833 2.41602 12.0612 2.41602 8.33325H1.66602H0.916016C0.916016 12.8896 4.60967 16.5833 9.16602 16.5833V15.8333ZM16.666 8.33325H15.916C15.916 12.0612 12.8939 15.0833 9.16602 15.0833V15.8333V16.5833C13.7224 16.5833 17.416 12.8896 17.416 8.33325H16.666ZM9.16602 0.833252V1.58325C12.8939 1.58325 15.916 4.60533 15.916 8.33325H16.666H17.416C17.416 3.7769 13.7224 0.083252 9.16602 0.083252V0.833252ZM9.16602 0.833252V0.083252C4.60967 0.083252 0.916016 3.7769 0.916016 8.33325H1.66602H2.41602C2.41602 4.60533 5.43809 1.58325 9.16602 1.58325V0.833252ZM7.68084 3.38455L7.56352 2.64378C5.45971 2.97699 3.80973 4.62697 3.47652 6.73078L4.21729 6.8481L4.95805 6.96543C5.1896 5.50346 6.3362 4.35687 7.79817 4.12531L7.68084 3.38455Z" fill="#757575"/>
</g>
<defs>
<clipPath id="clip0_44_12888">
<rect width="20" height="20" fill="white"/>
</clipPath>
</defs>
</svg>
