<svg width="20" height="20" viewBox="0 0 20 20" fill="none" xmlns="http://www.w3.org/2000/svg">
<path d="M11.6676 10.001C11.6676 10.9216 10.9213 11.6678 10.0008 11.6678C9.08024 11.6678 8.33398 10.9216 8.33398 10.001C8.33398 9.08049 9.08024 8.33423 10.0008 8.33423C10.9213 8.33423 11.6676 9.08049 11.6676 10.001Z" stroke="#0E4466" stroke-width="1.5"/>
<path d="M11.6676 3.3338C11.6676 4.25435 10.9213 5.00061 10.0008 5.00061C9.08024 5.00061 8.33398 4.25435 8.33398 3.3338C8.33398 2.41325 9.08024 1.66699 10.0008 1.66699C10.9213 1.66699 11.6676 2.41325 11.6676 3.3338Z" stroke="#0E4466" stroke-width="1.5"/>
<path d="M11.6676 16.6683C11.6676 17.5888 10.9213 18.3351 10.0008 18.3351C9.08024 18.3351 8.33398 17.5888 8.33398 16.6683C8.33398 15.7477 9.08024 15.0015 10.0008 15.0015C10.9213 15.0015 11.6676 15.7477 11.6676 16.6683Z" stroke="#0E4466" stroke-width="1.5"/>
</svg>
