<svg width="28" height="28" viewBox="0 0 28 28" fill="none" xmlns="http://www.w3.org/2000/svg">
<path d="M14.8743 4.66675C14.8743 4.1835 14.4826 3.79175 13.9993 3.79175C13.5161 3.79175 13.1243 4.1835 13.1243 4.66675L13.1243 13.1251H4.66602C4.18277 13.1251 3.79102 13.5168 3.79102 14.0001C3.79102 14.4833 4.18277 14.8751 4.66602 14.8751H13.1243V23.3334C13.1243 23.8167 13.5161 24.2084 13.9993 24.2084C14.4826 24.2084 14.8743 23.8167 14.8743 23.3334V14.8751H23.3327C23.8159 14.8751 24.2077 14.4833 24.2077 14.0001C24.2077 13.5168 23.8159 13.1251 23.3327 13.1251H14.8743L14.8743 4.66675Z" fill="#DADADA"/>
</svg>
