<svg width="20" height="20" viewBox="0 0 20 20" fill="none" xmlns="http://www.w3.org/2000/svg">
<path d="M12.3187 16.4186L11.7286 15.9558L11.7286 15.9558L12.3187 16.4186ZM7.6837 16.4186L7.09352 16.8814L7.6837 16.4186ZM10.0012 18.3396L10.0012 17.5896L10.0012 18.3396ZM16.6685 8.00802H15.9185C15.9185 8.99569 15.4 10.3392 14.5627 11.8196C13.7419 13.2707 12.6798 14.7428 11.7286 15.9558L12.3187 16.4186L12.9089 16.8814C13.8827 15.6396 14.9954 14.1013 15.8683 12.5581C16.7245 11.0443 17.4185 9.40991 17.4185 8.00802H16.6685ZM7.6837 16.4186L8.27387 15.9558C7.32267 14.7428 6.26054 13.2707 5.43979 11.8196C4.60243 10.3392 4.08398 8.99569 4.08398 8.00802H3.33398H2.58398C2.58398 9.40991 3.27791 11.0443 4.13417 12.5581C5.00703 14.1013 6.11976 15.6396 7.09352 16.8814L7.6837 16.4186ZM3.33398 8.00802H4.08398C4.08398 4.40711 6.78407 1.5835 10.0012 1.5835V0.833496V0.0834961C5.85395 0.0834961 2.58398 3.68417 2.58398 8.00802H3.33398ZM10.0012 0.833496V1.5835C13.2184 1.5835 15.9185 4.40711 15.9185 8.00802H16.6685H17.4185C17.4185 3.68417 14.1485 0.0834961 10.0012 0.0834961V0.833496ZM12.3187 16.4186L11.7286 15.9558C11.21 16.6171 10.8777 17.0366 10.5833 17.3042C10.3209 17.5425 10.1643 17.5896 10.0012 17.5896L10.0012 18.3396L10.0012 19.0896C10.6492 19.0896 11.1493 18.8165 11.5918 18.4145C12.0023 18.0416 12.4232 17.5007 12.9089 16.8814L12.3187 16.4186ZM7.6837 16.4186L7.09352 16.8814C7.57922 17.5007 8.00019 18.0416 8.41062 18.4145C8.85316 18.8165 9.35323 19.0896 10.0012 19.0896L10.0012 18.3396L10.0012 17.5896C9.83811 17.5896 9.68157 17.5425 9.41919 17.3042C9.1247 17.0366 8.79246 16.6171 8.27387 15.9558L7.6837 16.4186ZM7.50101 8.33414H6.75101C6.75101 10.1292 8.20618 11.5844 10.0012 11.5844V10.8344V10.0844C9.03461 10.0844 8.25101 9.30075 8.25101 8.33414H7.50101ZM10.0012 10.8344V11.5844C11.7963 11.5844 13.2514 10.1292 13.2514 8.33414H12.5014H11.7514C11.7514 9.30075 10.9678 10.0844 10.0012 10.0844V10.8344ZM12.5014 8.33414H13.2514C13.2514 6.53909 11.7963 5.08392 10.0012 5.08392V5.83392V6.58392C10.9678 6.58392 11.7514 7.36752 11.7514 8.33414H12.5014ZM10.0012 5.83392V5.08392C8.20618 5.08392 6.75101 6.53909 6.75101 8.33414H7.50101H8.25101C8.25101 7.36752 9.03461 6.58392 10.0012 6.58392V5.83392Z" fill="#0E4466"/>
</svg>
