<svg width="20" height="20" viewBox="0 0 20 20" fill="none" xmlns="http://www.w3.org/2000/svg">
<path d="M3.38372 16.8486L3.82456 16.2419L3.82456 16.2419L3.38372 16.8486ZM2.46185 15.9267L1.85508 16.3676L1.85508 16.3676L2.46185 15.9267ZM14.9496 16.8486L14.5088 16.2419L14.5088 16.2419L14.9496 16.8486ZM15.8715 15.9267L15.2647 15.4859L15.2647 15.4859L15.8715 15.9267ZM2.46185 4.36088L1.85508 3.92004L1.85508 3.92004L2.46185 4.36088ZM3.38372 3.439L3.82456 4.04576L3.82456 4.04576L3.38372 3.439ZM7.50884 3.39912C7.92302 3.39416 8.25476 3.05437 8.24979 2.64018C8.24483 2.226 7.90504 1.89426 7.49086 1.89923L7.49985 2.64917L7.50884 3.39912ZM17.4112 11.8196C17.4162 11.4054 17.0845 11.0656 16.6703 11.0607C16.2561 11.0557 15.9163 11.3874 15.9113 11.8016L16.6613 11.8106L17.4112 11.8196ZM9.83135 13.4811L9.74852 12.7357L9.83135 13.4811ZM6.3979 13.2332L5.86757 13.7636L5.86757 13.7636L6.3979 13.2332ZM6.14998 9.79977L6.89539 9.8826L6.14998 9.79977ZM7.10598 7.81069L6.57565 7.28036L6.57565 7.28036L7.10598 7.81069ZM6.36886 8.68069L5.69288 8.3558L5.69288 8.3558L6.36886 8.68069ZM11.8204 12.5251L12.3508 13.0555L12.3508 13.0555L11.8204 12.5251ZM10.9504 13.2623L11.2753 13.9382L11.2753 13.9382L10.9504 13.2623ZM9.16666 17.6445V16.8945C7.58743 16.8945 6.46325 16.8934 5.59485 16.7993C4.74048 16.7068 4.22309 16.5314 3.82456 16.2419L3.38372 16.8486L2.94289 17.4554C3.63973 17.9617 4.45128 18.1842 5.43328 18.2906C6.40124 18.3955 7.62084 18.3945 9.16666 18.3945V17.6445ZM1.66602 10.1438H0.916016C0.916016 11.6896 0.914986 12.9092 1.01986 13.8772C1.12625 14.8592 1.3488 15.6707 1.85508 16.3676L2.46185 15.9267L3.06861 15.4859C2.77906 15.0874 2.6037 14.57 2.51113 13.7156C2.41705 12.8472 2.41602 11.723 2.41602 10.1438H1.66602ZM3.38372 16.8486L3.82456 16.2419C3.53448 16.0311 3.27937 15.776 3.06861 15.4859L2.46185 15.9267L1.85508 16.3676C2.15836 16.785 2.52546 17.1521 2.94289 17.4554L3.38372 16.8486ZM9.16666 17.6445V18.3945C10.7125 18.3945 11.9321 18.3955 12.9 18.2906C13.882 18.1842 14.6936 17.9617 15.3904 17.4554L14.9496 16.8486L14.5088 16.2419C14.1102 16.5314 13.5928 16.7068 12.7385 16.7993C11.8701 16.8934 10.7459 16.8945 9.16666 16.8945V17.6445ZM15.8715 15.9267L15.2647 15.4859C15.0539 15.776 14.7988 16.0311 14.5088 16.2419L14.9496 16.8486L15.3904 17.4554C15.8079 17.1521 16.175 16.785 16.4782 16.3676L15.8715 15.9267ZM1.66602 10.1438H2.41602C2.41602 8.56458 2.41705 7.44041 2.51113 6.572C2.6037 5.71763 2.77906 5.20024 3.06861 4.80172L2.46185 4.36088L1.85508 3.92004C1.3488 4.61688 1.12625 5.42844 1.01986 6.41043C0.914986 7.37839 0.916016 8.59799 0.916016 10.1438H1.66602ZM3.38372 3.439L2.94289 2.83224C2.52546 3.13552 2.15836 3.50261 1.85508 3.92004L2.46185 4.36088L3.06861 4.80172C3.27937 4.51163 3.53448 4.25652 3.82456 4.04576L3.38372 3.439ZM7.49985 2.64917L7.49086 1.89923C5.47478 1.92339 4.04558 2.03108 2.94289 2.83224L3.38372 3.439L3.82456 4.04576C4.4829 3.56745 5.41847 3.42418 7.50884 3.39912L7.49985 2.64917ZM16.6613 11.8106L15.9113 11.8016C15.8863 13.892 15.743 14.8276 15.2647 15.4859L15.8715 15.9267L16.4782 16.3676C17.2794 15.2649 17.3871 13.8357 17.4112 11.8196L16.6613 11.8106ZM16.2973 8.04825L15.767 7.51792L11.2901 11.9948L11.8204 12.5251L12.3508 13.0555L16.8276 8.57858L16.2973 8.04825ZM7.10598 7.81069L7.63631 8.34102L12.1132 3.86413L11.5829 3.3338L11.0525 2.80347L6.57565 7.28036L7.10598 7.81069ZM9.83135 13.4811L9.74852 12.7357C8.76957 12.8445 8.11653 12.9152 7.63451 12.8996C7.17261 12.8847 7.01792 12.7926 6.92823 12.7029L6.3979 13.2332L5.86757 13.7636C6.34434 14.2403 6.95072 14.3783 7.5861 14.3989C8.20135 14.4187 8.9818 14.3301 9.91417 14.2266L9.83135 13.4811ZM6.14998 9.79977L5.40457 9.71695C5.30097 10.6493 5.2124 11.4298 5.23226 12.045C5.25278 12.6804 5.39079 13.2868 5.86757 13.7636L6.3979 13.2332L6.92823 12.7029C6.83853 12.6132 6.7464 12.4585 6.73148 11.9966C6.71592 11.5146 6.78662 10.8615 6.89539 9.8826L6.14998 9.79977ZM7.10598 7.81069L6.57565 7.28036C6.20238 7.65363 5.88396 7.95824 5.69288 8.3558L6.36886 8.68069L7.04484 9.00558C7.0997 8.89144 7.19072 8.78661 7.63631 8.34102L7.10598 7.81069ZM6.14998 9.79977L6.89539 9.8826C6.96498 9.25628 6.98998 9.11972 7.04484 9.00558L6.36886 8.68069L5.69288 8.3558C5.50181 8.75336 5.46286 9.19228 5.40457 9.71695L6.14998 9.79977ZM11.8204 12.5251L11.2901 11.9948C10.8445 12.4404 10.7397 12.5314 10.6255 12.5863L10.9504 13.2623L11.2753 13.9382C11.6729 13.7472 11.9775 13.4287 12.3508 13.0555L11.8204 12.5251ZM9.83135 13.4811L9.91417 14.2266C10.4388 14.1683 10.8778 14.1293 11.2753 13.9382L10.9504 13.2623L10.6255 12.5863C10.5114 12.6411 10.3748 12.6661 9.74852 12.7357L9.83135 13.4811ZM16.2973 3.3338L15.767 3.86413C16.3376 4.43473 16.7111 4.81045 16.9512 5.12515C17.1781 5.42253 17.2141 5.57574 17.2141 5.69103H17.9641H18.7141C18.7141 5.1159 18.4724 4.64609 18.1437 4.21527C17.8282 3.80176 17.3683 3.34408 16.8276 2.80347L16.2973 3.3338ZM16.2973 8.04825L16.8276 8.57858C17.3683 8.03797 17.8282 7.58029 18.1437 7.16678C18.4724 6.73596 18.7141 6.26615 18.7141 5.69103H17.9641H17.2141C17.2141 5.80632 17.1781 5.95952 16.9512 6.2569C16.7111 6.5716 16.3376 6.94732 15.767 7.51792L16.2973 8.04825ZM16.2973 3.3338L16.8276 2.80347C16.287 2.26286 15.8294 1.80293 15.4158 1.48743C14.985 1.15873 14.5152 0.916992 13.9401 0.916992V1.66699V2.41699C14.0554 2.41699 14.2086 2.45306 14.506 2.67996C14.8207 2.92007 15.1964 3.29354 15.767 3.86413L16.2973 3.3338ZM11.5829 3.3338L12.1132 3.86413C12.6838 3.29354 13.0595 2.92007 13.3742 2.67996C13.6716 2.45306 13.8248 2.41699 13.9401 2.41699V1.66699V0.916992C13.365 0.916992 12.8952 1.15873 12.4643 1.48743C12.0508 1.80293 11.5931 2.26286 11.0525 2.80347L11.5829 3.3338ZM16.2973 8.04825L16.8276 7.51792L12.1132 2.80347L11.5829 3.3338L11.0525 3.86413L15.767 8.57858L16.2973 8.04825Z" fill="#0E4466"/>
</svg>
