<svg width="20" height="20" viewBox="0 0 20 20" fill="none" xmlns="http://www.w3.org/2000/svg">
<path d="M4.21771 17.5393L4.65855 16.9325L4.21771 17.5393ZM3.29583 16.6174L3.90259 16.1765L3.29583 16.6174ZM16.7055 16.6174L16.0987 16.1765L16.7055 16.6174ZM15.7836 17.5393L16.2244 18.146L15.7836 17.5393ZM15.7836 4.12963L16.2244 3.52287L15.7836 4.12963ZM16.7055 5.05151L16.0987 5.49235L16.0987 5.49235L16.7055 5.05151ZM4.21771 4.12963L4.65855 4.73639L4.65855 4.73639L4.21771 4.12963ZM3.29583 5.05151L3.90259 5.49235L3.90259 5.49235L3.29583 5.05151ZM16.016 13.386L15.8987 12.6452L15.8987 12.6452L16.016 13.386ZM12.5522 16.8498L11.8114 16.7325L11.8114 16.7325L12.5522 16.8498ZM7.50043 10.9178C7.08621 10.9178 6.75043 11.2536 6.75043 11.6678C6.75043 12.0821 7.08621 12.4178 7.50043 12.4178V11.6678V10.9178ZM12.5009 12.4178C12.9151 12.4178 13.2509 12.0821 13.2509 11.6678C13.2509 11.2536 12.9151 10.9178 12.5009 10.9178V11.6678V12.4178ZM11.7509 4.16721C11.7509 4.58142 12.0866 4.91721 12.5009 4.91721C12.9151 4.91721 13.2509 4.58142 13.2509 4.16721H12.5009H11.7509ZM13.2509 1.66699C13.2509 1.25278 12.9151 0.916992 12.5009 0.916992C12.0866 0.916992 11.7509 1.25278 11.7509 1.66699H12.5009H13.2509ZM6.75043 4.16721C6.75043 4.58142 7.08621 4.91721 7.50043 4.91721C7.91464 4.91721 8.25043 4.58142 8.25043 4.16721H7.50043H6.75043ZM8.25043 1.66699C8.25043 1.25278 7.91464 0.916992 7.50043 0.916992C7.08621 0.916992 6.75043 1.25278 6.75043 1.66699H7.50043H8.25043ZM17.4772 13.3347L18.2267 13.3603L17.4772 13.3347ZM2.52411 8.33423L1.77455 8.30855L2.52411 8.33423ZM17.4772 8.33423L18.2267 8.30855L17.4772 8.33423ZM10.0006 18.3351V17.5851C8.42141 17.5851 7.29724 17.5841 6.42883 17.49C5.57446 17.3974 5.05707 17.222 4.65855 16.9325L4.21771 17.5393L3.77687 18.146C4.47371 18.6523 5.28527 18.8749 6.26726 18.9812C7.23522 19.0861 8.45483 19.0851 10.0006 19.0851V18.3351ZM2.5 10.8344H1.75C1.75 12.3803 1.74897 13.5999 1.85384 14.5678C1.96023 15.5498 2.18278 16.3614 2.68907 17.0582L3.29583 16.6174L3.90259 16.1765C3.61305 15.778 3.43768 15.2606 3.34512 14.4063C3.25103 13.5378 3.25 12.4137 3.25 10.8344H2.5ZM4.21771 17.5393L4.65855 16.9325C4.36846 16.7217 4.11335 16.4666 3.90259 16.1765L3.29583 16.6174L2.68907 17.0582C2.99235 17.4756 3.35944 17.8427 3.77687 18.146L4.21771 17.5393ZM16.7055 16.6174L16.0987 16.1765C15.8879 16.4666 15.6328 16.7217 15.3427 16.9325L15.7836 17.5393L16.2244 18.146C16.6418 17.8427 17.0089 17.4756 17.3122 17.0582L16.7055 16.6174ZM15.7836 4.12963L15.3427 4.73639C15.6328 4.94716 15.8879 5.20226 16.0987 5.49235L16.7055 5.05151L17.3122 4.61067C17.0089 4.19324 16.6418 3.82615 16.2244 3.52287L15.7836 4.12963ZM4.21771 4.12963L3.77687 3.52287C3.35944 3.82615 2.99235 4.19324 2.68907 4.61067L3.29583 5.05151L3.90259 5.49235C4.11335 5.20226 4.36846 4.94716 4.65855 4.73639L4.21771 4.12963ZM16.016 13.386L15.8987 12.6452C13.7947 12.9784 12.1446 14.6285 11.8114 16.7325L12.5522 16.8498L13.2929 16.9671C13.5245 15.505 14.6712 14.3583 16.1333 14.1267L16.016 13.386ZM7.50043 11.6678V12.4178H12.5009V11.6678V10.9178H7.50043V11.6678ZM17.4772 13.3347L17.4772 12.5847C16.7465 12.5847 16.292 12.5829 15.8987 12.6452L16.016 13.386L16.1333 14.1267C16.3811 14.0875 16.6915 14.0847 17.4772 14.0847L17.4772 13.3347ZM17.5013 10.8344H16.7513C16.7513 11.8128 16.7512 12.6209 16.7276 13.309L17.4772 13.3347L18.2267 13.3603C18.2514 12.6411 18.2513 11.8045 18.2513 10.8344H17.5013ZM17.4772 13.3347L16.7276 13.309C16.6747 14.8533 16.5018 15.6217 16.0987 16.1765L16.7055 16.6174L17.3122 17.0582C18.0046 16.1053 18.1732 14.9232 18.2267 13.3603L17.4772 13.3347ZM12.5009 18.311L13.2509 18.311C13.2509 17.5253 13.2537 17.2149 13.2929 16.9671L12.5522 16.8498L11.8114 16.7325C11.7491 17.1258 11.7509 17.5803 11.7509 18.311L12.5009 18.311ZM10.0006 18.3351V19.0851C10.9707 19.0851 11.8073 19.0852 12.5265 19.0605L12.5009 18.311L12.4752 17.5614C11.7871 17.585 10.979 17.5851 10.0006 17.5851V18.3351ZM12.5009 18.311L12.5265 19.0605C14.0894 19.007 15.2715 18.8384 16.2244 18.146L15.7836 17.5393L15.3427 16.9325C14.7879 17.3356 14.0195 17.5085 12.4752 17.5614L12.5009 18.311ZM2.5 10.8344H3.25C3.25 9.8561 3.25009 9.04801 3.27367 8.35991L2.52411 8.33423L1.77455 8.30855C1.74991 9.02781 1.75 9.86441 1.75 10.8344H2.5ZM2.52411 8.33423L3.27367 8.35991C3.32658 6.81555 3.49947 6.04719 3.90259 5.49235L3.29583 5.05151L2.68907 4.61067C1.9967 5.56363 1.8281 6.74567 1.77455 8.30855L2.52411 8.33423ZM2.52411 8.33423V9.08423H17.4772V8.33423V7.58423H2.52411V8.33423ZM17.5013 10.8344H18.2513C18.2513 9.86441 18.2514 9.02781 18.2267 8.30855L17.4772 8.33423L16.7276 8.35991C16.7512 9.04801 16.7513 9.85611 16.7513 10.8344H17.5013ZM17.4772 8.33423L18.2267 8.30855C18.1732 6.74567 18.0046 5.56363 17.3122 4.61067L16.7055 5.05151L16.0987 5.49235C16.5018 6.04719 16.6747 6.81555 16.7276 8.35991L17.4772 8.33423ZM12.5009 4.16721H13.2509V3.35791H12.5009H11.7509V4.16721H12.5009ZM12.5009 3.35791H13.2509V1.66699H12.5009H11.7509V3.35791H12.5009ZM10.0006 3.3338V4.0838C10.979 4.0838 11.7871 4.0839 12.4752 4.10747L12.5009 3.35791L12.5265 2.60835C11.8073 2.58371 10.9707 2.5838 10.0006 2.5838V3.3338ZM12.5009 3.35791L12.4752 4.10747C14.0195 4.16038 14.7879 4.33328 15.3427 4.73639L15.7836 4.12963L16.2244 3.52287C15.2715 2.83051 14.0894 2.6619 12.5265 2.60835L12.5009 3.35791ZM7.50043 4.16721H8.25043V3.35791H7.50043H6.75043V4.16721H7.50043ZM7.50043 3.35791H8.25043V1.66699H7.50043H6.75043V3.35791H7.50043ZM10.0006 3.3338V2.5838C9.0306 2.5838 8.19401 2.58371 7.47475 2.60835L7.50043 3.35791L7.52611 4.10747C8.21421 4.0839 9.0223 4.0838 10.0006 4.0838V3.3338ZM7.50043 3.35791L7.47475 2.60835C5.91187 2.6619 4.72983 2.83051 3.77687 3.52287L4.21771 4.12963L4.65855 4.73639C5.21339 4.33328 5.98175 4.16038 7.52611 4.10747L7.50043 3.35791Z" fill="#0E4466"/>
</svg>
