<svg width="20" height="20" viewBox="0 0 20 20" fill="none" xmlns="http://www.w3.org/2000/svg">
<path d="M3.9675 3.05161C4.02638 2.99273 4.05582 2.96329 4.08175 2.93946C4.71944 2.35351 5.69961 2.35351 6.3373 2.93946C6.36323 2.96329 6.39267 2.99273 6.45155 3.05161L7.66681 4.26687C8.33525 4.93531 8.52642 5.94476 8.14869 6.81132C7.77096 7.67788 7.96213 8.68733 8.63057 9.35577L10.6281 11.3533C11.2965 12.0217 12.306 12.2129 13.1725 11.8352C14.0391 11.4574 15.0485 11.6486 15.717 12.317L16.9322 13.5323C16.9911 13.5912 17.0206 13.6206 17.0444 13.6465C17.6303 14.2842 17.6303 15.2644 17.0444 15.9021C17.0206 15.928 16.9911 15.9575 16.9322 16.0163L16.1936 16.755C15.592 17.3566 14.7248 17.6091 13.8944 17.4245C8.23589 16.1671 3.81674 11.748 2.5593 6.08947C2.37475 5.25902 2.62728 4.39184 3.22882 3.79029L3.9675 3.05161Z" stroke="#0E4466" stroke-width="1.5"/>
</svg>
