<svg width="20" height="20" viewBox="0 0 20 20" fill="none" xmlns="http://www.w3.org/2000/svg">
<g clip-path="url(#clip0_519_5160)">
<path d="M5.83441 5.00052C5.83441 2.69914 7.70005 0.833496 10.0014 0.833496C12.3028 0.833496 14.1685 2.69914 14.1685 5.00052V5.01027M5.83441 5.00052C6.35762 4.99058 6.9451 5.00052 7.63485 5.00052H12.368C13.0534 5.00052 13.6476 5.00052 14.1685 5.01027M5.83441 5.00052C4.4019 5.02773 3.51607 5.13937 2.82747 5.51953C2.02648 5.96174 1.394 6.65486 1.02654 7.49107M1.02654 7.49107L4.00725 10.4718C6.78526 13.2498 8.17427 14.6388 9.90031 14.6388C11.6263 14.6388 13.0154 13.2498 15.7934 10.4718L18.8209 7.44428C18.8506 7.41459 18.8833 7.38815 18.9186 7.36539M1.02654 7.49107C1.01522 7.51683 1.00415 7.54272 0.993343 7.56874C0.581321 8.56042 0.723677 9.84162 1.00839 12.404C1.24143 14.5014 1.35794 15.55 1.84173 16.3414C2.2679 17.0385 2.88961 17.595 3.62954 17.9416C4.46951 18.335 5.52462 18.335 7.63485 18.335H12.368C14.4782 18.335 15.5334 18.335 16.3733 17.9416C17.1133 17.595 17.735 17.0385 18.1611 16.3414C18.6449 15.55 18.7614 14.5014 18.9945 12.404C19.2792 9.84162 19.4215 8.56042 19.0095 7.56874C18.981 7.50001 18.9506 7.43221 18.9186 7.36539M14.1685 5.01027C15.6069 5.0372 16.4852 5.13849 17.1754 5.51953C17.9359 5.93939 18.5445 6.58544 18.9186 7.36539" stroke="#0E4466" stroke-width="1.5"/>
</g>
<defs>
<clipPath id="clip0_519_5160">
<rect width="20.0017" height="20.0017" fill="white"/>
</clipPath>
</defs>
</svg>
