<svg width="206" height="157" viewBox="0 0 206 157" fill="none" xmlns="http://www.w3.org/2000/svg">
<path d="M112.822 21.6386C118.663 26.1889 124.451 30.6917 130.232 35.2023C130.504 35.4142 131.021 35.5318 130.892 35.9827C130.742 36.5038 130.215 36.2883 129.847 36.2937C128.406 36.3145 126.965 36.2697 125.525 36.3136C124.704 36.3387 124.055 36.0785 123.412 35.5763C116.919 30.5044 110.404 25.4592 103.909 20.3892C103.414 20.0027 103.104 19.936 102.552 20.3642C97.046 24.6298 91.5101 28.8563 85.9815 33.0921C84.8386 33.9676 83.6911 34.837 82.5439 35.7069C82.0822 36.057 81.591 36.3056 80.9814 36.3018C79.3064 36.2912 77.6313 36.3077 75.9562 36.3124C75.7212 36.3131 75.4885 36.3009 75.3029 36.1182C75.1735 35.5743 75.6278 35.4334 75.9228 35.2055C79.3952 32.5224 82.8674 29.8389 86.3532 27.1733C86.9223 26.7381 87.1935 26.309 87.1571 25.5114C87.0597 23.3758 87.1292 21.2326 87.1304 19.0924C87.1306 18.6142 87.3313 18.332 87.8396 18.3156C88.7435 18.2862 89.6469 18.2423 90.5509 18.2183C91.2122 18.2006 91.5406 18.5303 91.5288 19.2001C91.5128 20.1039 91.5147 21.0081 91.4918 21.9117C91.4825 22.2758 91.3809 22.6465 91.7242 23.034C93.6257 21.569 95.5286 20.1045 97.4298 18.6378C99.1265 17.3288 100.831 16.0292 102.512 14.7002C103.041 14.2818 103.417 14.2623 103.986 14.7182C106.888 17.0411 109.836 19.3068 112.822 21.6386Z" fill="#0E4466"/>
<path d="M75.6809 83.1704C75.6831 84.2089 75.6906 85.1472 75.6852 86.0854C75.682 86.6532 75.9332 86.9837 76.516 86.9871C77.9852 86.9957 79.4544 86.9899 81.0592 86.9899C80.3058 85.5596 79.4688 84.2781 80.005 82.6704C80.3577 81.6131 80.928 80.7365 81.8598 80.1252C84.0659 78.6779 86.7925 78.8793 88.7598 80.4702C90.6403 81.9908 90.7889 83.7845 89.326 86.9056C90.5771 87.1147 91.8016 86.9894 93.0128 86.9973C94.9348 87.0099 94.9344 86.9831 94.9377 85.0787C94.9392 84.1739 94.948 83.2692 94.9456 82.3644C94.9441 81.7909 95.1895 81.5092 95.7931 81.5103C98.6808 81.5158 98.2468 81.2581 98.2176 83.7756C98.1721 87.6793 98.6759 86.9255 101.3 87.0138C101.567 87.0228 101.832 87.0785 102.099 87.0884C102.817 87.1153 103.247 86.8318 103.247 86.0437C103.248 82.6977 103.26 79.3517 103.266 76.0057C103.266 75.9056 103.245 75.8057 103.241 75.7053C103.142 73.4804 103.39 73.2561 105.603 73.4657C106.183 73.5206 106.45 73.7798 106.449 74.3532C106.442 78.4749 106.482 82.5973 106.415 86.718C106.385 88.5099 105.171 89.7558 103.432 89.7577C101.411 89.7599 99.3341 90.1762 97.3861 89.2458C97.1838 89.1491 96.9897 89.1797 96.8128 89.2937C95.9409 89.8556 94.9629 89.8026 93.9896 89.7998C91.912 89.7937 89.8184 89.9558 87.7614 89.7497C85.9347 89.5667 84.1701 89.5674 82.3402 89.7472C80.0503 89.9722 77.7212 89.8031 75.409 89.7912C74.6281 89.7872 73.8488 89.6885 73.2403 89.1453C72.7962 88.7489 72.4402 89.035 72.0454 89.1808C68.9493 90.3242 66.002 88.7882 65.2826 85.6585C64.655 82.9282 66.9344 79.869 69.737 79.7585C71.3764 79.6938 73.0205 79.7594 74.6624 79.7481C75.3633 79.7432 75.7207 80.0048 75.6844 80.7584C75.6474 81.5273 75.6791 82.2994 75.6809 83.1704ZM72.244 86.2496C72.5584 85.5436 72.3768 84.7994 72.3912 84.0748C72.4255 82.3536 72.1292 82.1251 70.4088 82.4363C70.2781 82.46 70.1504 82.5032 70.0231 82.5428C68.8026 82.9227 68.2549 83.9007 68.5255 85.2146C68.7647 86.3763 69.5164 86.8952 70.8071 86.7963C71.283 86.7598 71.7206 86.614 72.244 86.2496ZM83.2502 84.535C83.4801 85.5829 83.9913 86.5246 85.0904 86.6704C85.9775 86.788 86.4539 85.9447 86.8113 85.2092C87.2558 84.2946 87.2462 83.3782 86.5597 82.5815C85.9927 81.9234 85.2026 81.8236 84.4417 82.107C83.4157 82.4891 83.1585 83.3776 83.2502 84.535Z" fill="#0E4466"/>
<path d="M123.316 50.1777C123.317 55.0044 123.299 59.7305 123.336 64.4563C123.344 65.3963 122.981 65.6886 122.093 65.6842C116.663 65.6578 111.233 65.6552 105.803 65.6634C105.033 65.6646 104.605 65.4873 104.676 64.5815C104.742 63.7517 104.666 62.9081 104.617 62.0726C104.568 61.2369 104.943 60.9702 105.756 60.9759C109.678 61.0036 113.599 60.9874 117.521 60.9864C118.751 60.9862 118.772 60.9147 118.804 59.6704C118.948 54.0752 118.529 48.4811 118.789 42.8863C118.83 42.0115 118.566 41.3627 117.793 40.7775C114.962 38.6359 112.214 36.3839 109.415 34.1997C108.864 33.7697 108.745 33.4393 109.305 32.932C109.874 32.4152 110.405 31.8521 110.922 31.2812C111.275 30.8911 111.553 30.94 111.944 31.2454C115.508 34.0267 119.078 36.8006 122.667 39.5489C123.229 39.9787 123.327 40.5008 123.325 41.1279C123.316 44.1109 123.318 47.094 123.316 50.1777Z" fill="#D8B686"/>
<path d="M83.0525 48.3671C83.0525 45.7855 83.0691 43.3044 83.0417 40.8237C83.0342 40.1499 83.2437 39.6803 83.8211 39.3196C84.9694 38.6025 85.9801 37.6662 87.1778 37.0867C87.656 37.4635 87.53 37.8964 87.5302 38.2792C87.5327 45.4203 87.5269 52.5614 87.5198 59.7024C87.5185 60.9714 87.5241 60.9941 88.8013 60.9916C92.9248 60.9836 97.0485 60.9829 101.172 60.9392C101.877 60.9317 102.139 61.1368 102.119 61.8473C102.092 62.8152 102.136 63.7859 102.172 64.7547C102.205 65.6509 101.615 65.6768 100.966 65.6762C96.1713 65.6714 91.3771 65.6739 86.5828 65.6731C85.8117 65.673 85.037 65.6201 84.2705 65.6779C83.3415 65.7479 83.0386 65.3728 83.0432 64.4598C83.0702 59.1292 83.0541 53.7984 83.0525 48.3671Z" fill="#0E4466"/>
<path d="M109.756 52.8818C110.073 53.846 110.356 54.7358 110.662 55.6174C110.924 56.3708 110.666 56.6526 109.882 56.6477C106.802 56.6287 103.723 56.6423 100.643 56.6416C99.3379 56.6413 98.0323 56.6459 96.7271 56.629C95.7339 56.6161 95.5865 56.3896 95.8768 55.4895C96.6238 53.1738 97.0367 50.7554 98.0199 48.5124C98.1802 48.1467 97.9871 47.8803 97.8188 47.5841C96.3641 45.0233 96.763 42.2906 98.8758 40.2708C100.996 38.2434 103.998 37.9428 106.443 39.5129C109.475 41.4597 110.273 44.5047 108.556 47.673C108.325 48.0992 108.305 48.446 108.489 48.8947C109.009 50.1618 109.493 51.4454 109.756 52.8818ZM104.835 44.4222C103.844 43.2909 102.864 43.1571 101.914 44.0234C100.996 44.8612 100.947 46.0781 101.915 47.0374C102.429 47.5472 102.476 47.9603 102.254 48.6206C101.772 50.0561 101.167 51.4686 100.999 53.0871C102.548 53.1514 104 53.1735 105.597 53.0554C105.273 51.7629 105.004 50.568 104.671 49.3912C104.383 48.3754 103.959 47.432 104.957 46.4854C105.514 45.9567 105.376 45.1847 104.835 44.4222Z" fill="#BBBBBB"/>
<path d="M142.146 89.461C141.835 89.8005 141.494 89.7927 141.16 89.7931C138.617 89.7964 136.074 89.8062 133.531 89.7911C132.398 89.7844 132.362 89.6655 132.33 88.2507C132.309 87.3362 132.58 86.8895 133.585 86.9304C135.088 86.9916 136.596 86.9288 138.101 86.9527C138.732 86.9627 139.003 86.7398 139.01 86.0827C139.04 83.5112 138.303 82.1814 135.64 81.9555C134.564 81.8641 134.409 81.5455 134.69 80.4823C135.179 78.633 135.179 78.633 136.984 79.0065C140.491 79.7323 142.029 81.4645 142.233 85.0738C142.314 86.5049 142.21 87.9464 142.146 89.461Z" fill="#0E4466"/>
<path d="M120.224 94.4433C119.969 94.4564 119.801 94.4655 119.634 94.4634C118.135 94.4438 117.396 93.3148 117.968 91.9318C118.11 91.5908 118.35 91.503 118.692 91.5691C120.697 91.9575 121.651 90.8288 121.66 88.848C121.671 86.2708 121.662 83.6936 121.663 81.1164C121.664 79.7768 121.69 79.752 122.986 79.741C123.22 79.739 123.456 79.7597 123.688 79.7373C124.639 79.6456 124.988 80.0479 124.969 81.0149C124.917 83.5911 124.97 86.1692 124.94 88.746C124.905 91.7585 123.567 93.9415 120.224 94.4433Z" fill="#0E4466"/>
<path d="M112.289 75.1489C112.288 79.6381 112.292 84.0298 112.277 88.4214C112.275 88.889 112.477 89.5635 111.795 89.6868C110.956 89.8386 110.059 90.01 109.252 89.5431C108.976 89.3828 109.049 88.998 109.049 88.6995C109.04 83.9727 109.042 79.2459 109.02 74.5192C109.016 73.7353 109.357 73.4121 110.115 73.4647C110.315 73.4786 110.517 73.4638 110.718 73.4646C112.26 73.4707 112.262 73.4737 112.289 75.1489Z" fill="#0E4466"/>
<path d="M127.366 80.9818C127.407 78.6769 127.546 76.4685 127.413 74.2581C127.405 74.1266 127.374 73.9475 127.443 73.8681C128.171 73.0299 129.133 73.5941 129.983 73.4863C130.497 73.4211 130.626 73.8661 130.625 74.311C130.616 79.1688 130.6 84.0266 130.602 88.8844C130.602 89.4871 130.319 89.6991 129.765 89.7707C127.636 90.046 127.476 89.909 127.459 87.8068C127.441 85.5636 127.398 83.3206 127.366 80.9818Z" fill="#0E4466"/>
<path d="M97.8189 80.4207C96.4525 79.9597 96.1351 79.1491 96.6947 77.7195C96.4199 77.4695 96.0995 77.5519 95.7743 77.581C96.3925 79.0205 96.153 80.0148 95.1188 80.3646C94.107 80.7068 93.1175 80.1704 92.8496 79.1344C92.5884 78.1242 93.3124 77.3442 94.8874 77.0024C94.5654 75.9894 94.5057 74.9946 95.6404 74.44C96.2613 74.1365 96.8772 74.2661 97.3978 74.7644C98.0841 75.4215 98.1521 76.1421 97.577 76.993C98.3467 77.1947 99.1709 77.2045 99.5134 78.0565C99.6377 78.3658 99.8423 78.6368 99.7815 78.9989C99.6326 79.8856 98.983 80.3821 97.8189 80.4207Z" fill="#0E4466"/>
<path d="M70.7464 74.7563C71.5148 75.8242 71.4238 76.8066 70.5589 77.4416C69.8324 77.9749 68.8526 77.7786 68.2751 76.9839C67.7098 76.206 67.865 75.1399 68.6534 74.5921C69.3481 74.1094 70.0358 74.2177 70.7464 74.7563Z" fill="#0E4466"/>
<path d="M74.5036 77.2086C73.4728 77.9253 72.7926 77.9066 72.1323 77.2027C71.4793 76.5066 71.423 75.7313 71.9746 75.0325C72.586 74.258 73.4587 74.0729 74.1834 74.5642C75.1398 75.2125 75.262 76.0602 74.5036 77.2086Z" fill="#0E4466"/>
<path d="M83.7305 74.3906C83.9416 74.5115 84.0958 74.5862 84.2131 74.6992C84.9611 75.4198 85.1125 76.2134 84.5928 76.9258C84.1304 77.5595 83.5304 77.9506 82.7003 77.6472C81.9159 77.3604 81.3643 76.4915 81.4887 75.7763C81.6355 74.9323 82.4175 74.3202 83.3611 74.3164C83.4595 74.316 83.558 74.3461 83.7305 74.3906Z" fill="#0E4466"/>
<path d="M87.0449 74.3093C88.2725 74.8434 88.7766 75.7237 88.4049 76.5525C87.9995 77.4561 87.2058 77.9162 86.4207 77.7026C85.675 77.4997 85.0181 76.6105 85.0887 75.8997C85.1731 75.0506 85.9292 74.4067 87.0449 74.3093Z" fill="#0E4466"/>
</svg>
