<svg width="48" height="48" viewBox="0 0 48 48" fill="none" xmlns="http://www.w3.org/2000/svg">
<rect width="48" height="48" rx="24" fill="#EDF7FD"/>
<path d="M24.8333 20.0417C24.4882 20.0417 24.2083 20.3216 24.2083 20.6667C24.2083 21.0119 24.4882 21.2917 24.8333 21.2917H27.3333C27.6785 21.2917 27.9583 21.0119 27.9583 20.6667C27.9583 20.3216 27.6785 20.0417 27.3333 20.0417H24.8333Z" fill="#0E4466"/>
<path d="M20.6667 23.3751C20.3215 23.3751 20.0417 23.6549 20.0417 24.0001C20.0417 24.3453 20.3215 24.6251 20.6667 24.6251H27.3333C27.6785 24.6251 27.9583 24.3453 27.9583 24.0001C27.9583 23.6549 27.6785 23.3751 27.3333 23.3751H20.6667Z" fill="#0E4466"/>
<path d="M24.8333 26.7084C24.4882 26.7084 24.2083 26.9882 24.2083 27.3334C24.2083 27.6786 24.4882 27.9584 24.8333 27.9584H27.3333C27.6785 27.9584 27.9583 27.6786 27.9583 27.3334C27.9583 26.9882 27.6785 26.7084 27.3333 26.7084H24.8333Z" fill="#0E4466"/>
<path fill-rule="evenodd" clip-rule="evenodd" d="M30.1498 15.9569C29.4779 15.4687 28.6909 15.2501 27.7196 15.1449C26.7678 15.0417 25.5682 15.0417 24.0377 15.0417H23.9908C23.0241 15.0417 22.1929 15.0417 21.4786 15.0662C19.9174 15.1197 18.7699 15.2887 17.8502 15.9569C17.4434 16.2524 17.0857 16.6102 16.7901 17.0169C16.1219 17.9367 15.953 19.0841 15.8995 20.6453C15.875 21.3597 15.875 22.1908 15.875 23.1576V24.8711C15.875 26.4016 15.875 27.6012 15.9781 28.553C16.0833 29.5243 16.3019 30.3113 16.7901 30.9832C17.0857 31.39 17.4434 31.7477 17.8502 32.0433C18.5221 32.5315 19.3091 32.7501 20.2804 32.8553C21.2322 32.9584 22.4318 32.9584 23.9622 32.9584H24.0377C25.5681 32.9584 26.7678 32.9584 27.7196 32.8553C28.6909 32.7501 29.4779 32.5315 30.1498 32.0433C30.5566 31.7477 30.9143 31.39 31.2099 30.9832C31.6981 30.3113 31.9167 29.5243 32.0219 28.553C32.125 27.6013 32.125 26.4016 32.125 24.8712V23.129C32.125 21.5986 32.125 20.3989 32.0219 19.4471C31.9167 18.4759 31.6981 17.6889 31.2099 17.0169C30.9143 16.6102 30.5566 16.2524 30.1498 15.9569ZM24 16.2917C25.5763 16.2917 26.7083 16.2926 27.585 16.3876C28.4499 16.4813 28.9917 16.6606 29.4151 16.9681C29.7157 17.1866 29.9802 17.451 30.1986 17.7517C30.5062 18.175 30.6855 18.7169 30.7792 19.5818C30.8741 20.4584 30.875 21.5904 30.875 23.1667V24.8334C30.875 26.4097 30.8741 27.5418 30.7792 28.4184C30.6855 29.2833 30.5062 29.8252 30.1986 30.2485C29.9802 30.5492 29.7157 30.8136 29.4151 31.032C28.9917 31.3396 28.4499 31.5189 27.585 31.6126C26.7083 31.7076 25.5763 31.7084 24 31.7084C22.4237 31.7084 21.2917 31.7076 20.415 31.6126C19.5501 31.5189 19.0083 31.3396 18.5849 31.032C18.2843 30.8136 18.0198 30.5492 17.8014 30.2485C17.4938 29.8252 17.3145 29.2833 17.2208 28.4184C17.1259 27.5418 17.125 26.4097 17.125 24.8334V23.1667C17.125 22.4598 17.125 21.8403 17.134 21.2902C17.5296 21.2866 17.8207 21.2743 18.0829 21.2328C20.1332 20.908 21.7413 19.3 22.066 17.2497C22.1075 16.9875 22.1198 16.6963 22.1235 16.3008C22.6735 16.2918 23.293 16.2917 24 16.2917ZM17.8874 19.9981C17.7165 20.0252 17.5187 20.0355 17.1812 20.0394C17.2593 18.9058 17.4385 18.2512 17.8014 17.7517C18.0198 17.451 18.2843 17.1866 18.5849 16.9681C19.0845 16.6052 19.7391 16.4261 20.8727 16.348C20.8688 16.6854 20.8585 16.8833 20.8314 17.0541C20.5914 18.5696 19.4028 19.7581 17.8874 19.9981Z" fill="#0E4466"/>
<path d="M24.8333 20.0417C24.4882 20.0417 24.2083 20.3216 24.2083 20.6667C24.2083 21.0119 24.4882 21.2917 24.8333 21.2917H27.3333C27.6785 21.2917 27.9583 21.0119 27.9583 20.6667C27.9583 20.3216 27.6785 20.0417 27.3333 20.0417H24.8333Z" stroke="#0E4466"/>
<path d="M20.6667 23.3751C20.3215 23.3751 20.0417 23.6549 20.0417 24.0001C20.0417 24.3453 20.3215 24.6251 20.6667 24.6251H27.3333C27.6785 24.6251 27.9583 24.3453 27.9583 24.0001C27.9583 23.6549 27.6785 23.3751 27.3333 23.3751H20.6667Z" stroke="#0E4466"/>
<path d="M24.8333 26.7084C24.4882 26.7084 24.2083 26.9882 24.2083 27.3334C24.2083 27.6786 24.4882 27.9584 24.8333 27.9584H27.3333C27.6785 27.9584 27.9583 27.6786 27.9583 27.3334C27.9583 26.9882 27.6785 26.7084 27.3333 26.7084H24.8333Z" stroke="#0E4466"/>
<path fill-rule="evenodd" clip-rule="evenodd" d="M30.1498 15.9569C29.4779 15.4687 28.6909 15.2501 27.7196 15.1449C26.7678 15.0417 25.5682 15.0417 24.0377 15.0417H23.9908C23.0241 15.0417 22.1929 15.0417 21.4786 15.0662C19.9174 15.1197 18.7699 15.2887 17.8502 15.9569C17.4434 16.2524 17.0857 16.6102 16.7901 17.0169C16.1219 17.9367 15.953 19.0841 15.8995 20.6453C15.875 21.3597 15.875 22.1908 15.875 23.1576V24.8711C15.875 26.4016 15.875 27.6012 15.9781 28.553C16.0833 29.5243 16.3019 30.3113 16.7901 30.9832C17.0857 31.39 17.4434 31.7477 17.8502 32.0433C18.5221 32.5315 19.3091 32.7501 20.2804 32.8553C21.2322 32.9584 22.4318 32.9584 23.9622 32.9584H24.0377C25.5681 32.9584 26.7678 32.9584 27.7196 32.8553C28.6909 32.7501 29.4779 32.5315 30.1498 32.0433C30.5566 31.7477 30.9143 31.39 31.2099 30.9832C31.6981 30.3113 31.9167 29.5243 32.0219 28.553C32.125 27.6013 32.125 26.4016 32.125 24.8712V23.129C32.125 21.5986 32.125 20.3989 32.0219 19.4471C31.9167 18.4759 31.6981 17.6889 31.2099 17.0169C30.9143 16.6102 30.5566 16.2524 30.1498 15.9569ZM24 16.2917C25.5763 16.2917 26.7083 16.2926 27.585 16.3876C28.4499 16.4813 28.9917 16.6606 29.4151 16.9681C29.7157 17.1866 29.9802 17.451 30.1986 17.7517C30.5062 18.175 30.6855 18.7169 30.7792 19.5818C30.8741 20.4584 30.875 21.5904 30.875 23.1667V24.8334C30.875 26.4097 30.8741 27.5418 30.7792 28.4184C30.6855 29.2833 30.5062 29.8252 30.1986 30.2485C29.9802 30.5492 29.7157 30.8136 29.4151 31.032C28.9917 31.3396 28.4499 31.5189 27.585 31.6126C26.7083 31.7076 25.5763 31.7084 24 31.7084C22.4237 31.7084 21.2917 31.7076 20.415 31.6126C19.5501 31.5189 19.0083 31.3396 18.5849 31.032C18.2843 30.8136 18.0198 30.5492 17.8014 30.2485C17.4938 29.8252 17.3145 29.2833 17.2208 28.4184C17.1259 27.5418 17.125 26.4097 17.125 24.8334V23.1667C17.125 22.4598 17.125 21.8403 17.134 21.2902C17.5296 21.2866 17.8207 21.2743 18.0829 21.2328C20.1332 20.908 21.7413 19.3 22.066 17.2497C22.1075 16.9875 22.1198 16.6963 22.1235 16.3008C22.6735 16.2918 23.293 16.2917 24 16.2917ZM17.8874 19.9981C17.7165 20.0252 17.5187 20.0355 17.1812 20.0394C17.2593 18.9058 17.4385 18.2512 17.8014 17.7517C18.0198 17.451 18.2843 17.1866 18.5849 16.9681C19.0845 16.6052 19.7391 16.4261 20.8727 16.348C20.8688 16.6854 20.8585 16.8833 20.8314 17.0541C20.5914 18.5696 19.4028 19.7581 17.8874 19.9981Z" stroke="#0E4466"/>
</svg>
