<svg width="28" height="28" viewBox="0 0 28 28" fill="none" xmlns="http://www.w3.org/2000/svg">
<path d="M20.4549 12.2827C20.7951 11.9395 20.7926 11.3855 20.4494 11.0453C20.1061 10.7051 19.5521 10.7076 19.2119 11.0508L17.1734 13.1076C16.3461 13.9423 15.7767 14.5149 15.2943 14.9024C14.8256 15.2788 14.5246 15.4079 14.255 15.4422C14.0857 15.4638 13.9144 15.4638 13.7452 15.4422C13.4756 15.4079 13.1745 15.2788 12.7059 14.9024C12.2235 14.5149 11.6541 13.9423 10.8267 13.1076L8.78822 11.0508C8.44804 10.7076 7.89403 10.7051 7.5508 11.0453C7.20757 11.3855 7.20509 11.9395 7.54528 12.2827L9.62053 14.3766C10.4021 15.1652 11.0409 15.8097 11.6101 16.2668C12.202 16.7422 12.8028 17.0863 13.5239 17.1782C13.8401 17.2185 14.1601 17.2185 14.4763 17.1782C15.1974 17.0863 15.7982 16.7422 16.39 16.2668C16.9592 15.8097 17.598 15.1652 18.3796 14.3766L20.4549 12.2827Z" fill="#8F8F8F"/>
</svg>
