<svg width="20" height="20" viewBox="0 0 20 20" fill="none" xmlns="http://www.w3.org/2000/svg">
<path d="M16.7332 5.65881C17.0584 6.38646 17.1962 7.37834 17.433 9.08353C17.7965 11.7008 17.9783 13.0094 17.5786 14.0258C17.2278 14.9181 16.58 15.6621 15.7445 16.1323C14.7927 16.668 13.4715 16.668 10.8292 16.668H9.47555C6.83316 16.668 5.51197 16.668 4.56024 16.1323C3.72472 15.6621 3.07692 14.9181 2.72608 14.0258C2.32644 13.0094 2.50819 11.7008 2.8717 9.08353C3.09345 7.48693 3.22835 6.51568 3.51156 5.80115M16.7332 5.65881C16.6697 5.51672 16.5991 5.38471 16.5192 5.25943C16.0881 4.58367 15.4713 4.04658 14.7426 3.71256C13.9157 3.3335 12.8869 3.3335 10.8292 3.3335H9.47555C7.41783 3.3335 6.38897 3.3335 5.56209 3.71256C4.83345 4.04658 4.21661 4.58367 3.78553 5.25943C3.67954 5.42557 3.58988 5.60354 3.51156 5.80115M16.7332 5.65881L16.6595 5.7326L15.9443 6.44776C13.1663 9.22578 11.7773 10.6148 10.0512 10.6148C8.32519 10.6148 6.93619 9.22578 4.15817 6.44776L3.51156 5.80115" stroke="#0E4466" stroke-width="1.5"/>
</svg>
