<svg width="192" height="48" viewBox="0 0 192 48" fill="none" xmlns="http://www.w3.org/2000/svg">
<rect x="0.5" y="0.5" width="191" height="47" rx="23.5" stroke="#DADADA"/>
<g clip-path="url(#clip0_44_13146)">
<path d="M33.0304 29.4698C32.7375 29.1769 32.2626 29.1769 31.9697 29.4698C31.6768 29.7626 31.6768 30.2375 31.9697 30.5304L32.5001 30.0001L33.0304 29.4698ZM35.9696 34.5304C36.2625 34.8233 36.7374 34.8233 37.0303 34.5304C37.3232 34.2375 37.3232 33.7626 37.0303 33.4697L36.5 34L35.9696 34.5304ZM22.8351 16.8023C23.2442 16.7375 23.5234 16.3533 23.4586 15.9442C23.3938 15.5351 23.0096 15.256 22.6005 15.3208L22.7178 16.0616L22.8351 16.8023ZM17.8208 20.1005C17.756 20.5096 18.0351 20.8938 18.4442 20.9586C18.8533 21.0234 19.2375 20.7443 19.3023 20.3351L18.5615 20.2178L17.8208 20.1005ZM32.5001 30.0001L31.9697 30.5304L35.9696 34.5304L36.5 34L37.0303 33.4697L33.0304 29.4698L32.5001 30.0001ZM24.5 31V30.25C19.9437 30.25 16.25 26.5563 16.25 22H15.5H14.75C14.75 27.3848 19.1152 31.75 24.5 31.75V31ZM33.5 22H32.75C32.75 26.5563 29.0563 30.25 24.5 30.25V31V31.75C29.8848 31.75 34.25 27.3848 34.25 22H33.5ZM24.5 13V13.75C29.0563 13.75 32.75 17.4437 32.75 22H33.5H34.25C34.25 16.6152 29.8848 12.25 24.5 12.25V13ZM24.5 13V12.25C19.1152 12.25 14.75 16.6152 14.75 22H15.5H16.25C16.25 17.4437 19.9437 13.75 24.5 13.75V13ZM22.7178 16.0616L22.6005 15.3208C20.1401 15.7105 18.2104 17.6401 17.8208 20.1005L18.5615 20.2178L19.3023 20.3351C19.5903 18.5166 21.0166 17.0903 22.8351 16.8023L22.7178 16.0616Z" fill="#0E4466"/>
</g>
<path d="M46.46 29.5V18.3H53.332V19.644H47.804V22.828H52.332V24.172H47.804V28.156H53.332V29.5H46.46ZM54.6475 29.5L57.5755 25.484L54.6635 21.484H56.3195L58.4075 24.332L60.4875 21.484H62.1435L59.2315 25.484L62.1595 29.5H60.5035L58.4075 26.62L56.3035 29.5H54.6475ZM65.2096 33.5H63.8656V21.5H65.2096V22.868C65.4816 22.3987 65.8443 22.02 66.2976 21.732C66.751 21.4387 67.2896 21.292 67.9136 21.292C68.495 21.292 69.039 21.4013 69.5456 21.62C70.0576 21.8387 70.5056 22.1427 70.8896 22.532C71.2736 22.916 71.575 23.3613 71.7936 23.868C72.0123 24.3747 72.1216 24.9187 72.1216 25.5C72.1216 26.0813 72.0123 26.628 71.7936 27.14C71.575 27.652 71.2736 28.1027 70.8896 28.492C70.5056 28.876 70.0576 29.1773 69.5456 29.396C69.039 29.6147 68.495 29.724 67.9136 29.724C67.2896 29.724 66.751 29.58 66.2976 29.292C65.8443 28.9987 65.4816 28.6173 65.2096 28.148V33.5ZM67.8976 22.596C67.3803 22.596 66.927 22.7267 66.5376 22.988C66.1483 23.2493 65.847 23.5987 65.6336 24.036C65.4256 24.4733 65.3216 24.9613 65.3216 25.5C65.3216 26.0333 65.4256 26.5213 65.6336 26.964C65.847 27.4067 66.1456 27.7587 66.5296 28.02C66.919 28.2813 67.375 28.412 67.8976 28.412C68.415 28.412 68.8896 28.284 69.3216 28.028C69.7536 27.7667 70.1003 27.4173 70.3616 26.98C70.623 26.5373 70.7536 26.044 70.7536 25.5C70.7536 24.9667 70.6256 24.4813 70.3696 24.044C70.1136 23.6013 69.7696 23.2493 69.3376 22.988C68.9056 22.7267 68.4256 22.596 67.8976 22.596ZM73.7012 29.5V17.5H75.0452V29.5H73.7012ZM80.7288 29.708C79.9928 29.708 79.3208 29.5187 78.7128 29.14C78.1101 28.7613 77.6274 28.2547 77.2648 27.62C76.9074 26.98 76.7288 26.2733 76.7288 25.5C76.7288 24.9133 76.8328 24.3667 77.0408 23.86C77.2488 23.348 77.5341 22.9 77.8968 22.516C78.2648 22.1267 78.6914 21.8227 79.1768 21.604C79.6621 21.3853 80.1794 21.276 80.7288 21.276C81.4648 21.276 82.1341 21.4653 82.7368 21.844C83.3448 22.2227 83.8274 22.732 84.1848 23.372C84.5474 24.012 84.7288 24.7213 84.7288 25.5C84.7288 26.0813 84.6248 26.6253 84.4168 27.132C84.2088 27.6387 83.9208 28.0867 83.5528 28.476C83.1901 28.86 82.7661 29.1613 82.2808 29.38C81.8008 29.5987 81.2834 29.708 80.7288 29.708ZM80.7288 28.364C81.2301 28.364 81.6808 28.2333 82.0808 27.972C82.4861 27.7053 82.8034 27.356 83.0328 26.924C83.2674 26.4867 83.3848 26.012 83.3848 25.5C83.3848 24.9773 83.2648 24.4973 83.0248 24.06C82.7901 23.6227 82.4728 23.2733 82.0728 23.012C81.6728 22.7507 81.2248 22.62 80.7288 22.62C80.2274 22.62 79.7768 22.7533 79.3768 23.02C78.9768 23.2813 78.6594 23.6307 78.4248 24.068C78.1901 24.5053 78.0728 24.9827 78.0728 25.5C78.0728 26.0333 78.1928 26.5187 78.4328 26.956C78.6728 27.388 78.9954 27.732 79.4008 27.988C79.8061 28.2387 80.2488 28.364 80.7288 28.364ZM86.3725 29.5V21.5H87.7165V22.5C87.9992 22.1267 88.3565 21.8307 88.7885 21.612C89.2205 21.388 89.6898 21.276 90.1965 21.276C90.5058 21.276 90.8045 21.316 91.0925 21.396L90.5485 22.74C90.3298 22.6707 90.1165 22.636 89.9085 22.636C89.5085 22.636 89.1405 22.7347 88.8045 22.932C88.4738 23.124 88.2098 23.3853 88.0125 23.716C87.8152 24.0467 87.7165 24.4147 87.7165 24.82V29.5H86.3725ZM95.5094 29.708C94.7734 29.708 94.1014 29.5187 93.4934 29.14C92.8907 28.7613 92.408 28.2547 92.0454 27.62C91.688 26.98 91.5094 26.2733 91.5094 25.5C91.5094 24.9133 91.6134 24.3667 91.8214 23.86C92.0294 23.348 92.3147 22.9 92.6774 22.516C93.0454 22.1267 93.472 21.8227 93.9574 21.604C94.4427 21.3853 94.96 21.276 95.5094 21.276C96.112 21.276 96.664 21.3987 97.1654 21.644C97.672 21.884 98.104 22.22 98.4614 22.652C98.824 23.084 99.0934 23.5853 99.2694 24.156C99.4507 24.7267 99.5174 25.3373 99.4694 25.988H92.9414C93.0054 26.4413 93.1547 26.8467 93.3894 27.204C93.624 27.556 93.9227 27.836 94.2854 28.044C94.6534 28.252 95.0614 28.3587 95.5094 28.364C95.9894 28.364 96.424 28.2413 96.8134 27.996C97.2027 27.7453 97.5174 27.404 97.7574 26.972L99.1254 27.292C98.8054 28.0013 98.3227 28.5827 97.6774 29.036C97.032 29.484 96.3094 29.708 95.5094 29.708ZM92.9014 24.932H98.1174C98.0747 24.484 97.9307 24.076 97.6854 23.708C97.44 23.3347 97.128 23.036 96.7494 22.812C96.3707 22.588 95.9574 22.476 95.5094 22.476C95.0614 22.476 94.6507 22.5853 94.2774 22.804C93.904 23.0227 93.5947 23.3187 93.3494 23.692C93.1094 24.06 92.96 24.4733 92.9014 24.932ZM105.411 29.5V18.3H109.107C109.709 18.3 110.251 18.4467 110.731 18.74C111.216 19.0333 111.6 19.4307 111.883 19.932C112.171 20.428 112.315 20.9827 112.315 21.596C112.315 22.22 112.168 22.7827 111.875 23.284C111.587 23.78 111.197 24.1747 110.707 24.468C110.221 24.756 109.688 24.9 109.107 24.9H106.755V29.5H105.411ZM106.755 23.556H108.987C109.349 23.556 109.68 23.468 109.979 23.292C110.283 23.1107 110.523 22.868 110.699 22.564C110.88 22.2547 110.971 21.908 110.971 21.524C110.971 21.1347 110.88 20.788 110.699 20.484C110.523 20.1747 110.283 19.932 109.979 19.756C109.68 19.5747 109.349 19.484 108.987 19.484H106.755V23.556ZM114.012 29.5V21.5H115.356V22.5C115.639 22.1267 115.996 21.8307 116.428 21.612C116.86 21.388 117.329 21.276 117.836 21.276C118.145 21.276 118.444 21.316 118.732 21.396L118.188 22.74C117.969 22.6707 117.756 22.636 117.548 22.636C117.148 22.636 116.78 22.7347 116.444 22.932C116.113 23.124 115.849 23.3853 115.652 23.716C115.455 24.0467 115.356 24.4147 115.356 24.82V29.5H114.012ZM123.149 29.708C122.413 29.708 121.741 29.5187 121.133 29.14C120.53 28.7613 120.047 28.2547 119.685 27.62C119.327 26.98 119.149 26.2733 119.149 25.5C119.149 24.9133 119.253 24.3667 119.461 23.86C119.669 23.348 119.954 22.9 120.317 22.516C120.685 22.1267 121.111 21.8227 121.597 21.604C122.082 21.3853 122.599 21.276 123.149 21.276C123.885 21.276 124.554 21.4653 125.157 21.844C125.765 22.2227 126.247 22.732 126.605 23.372C126.967 24.012 127.149 24.7213 127.149 25.5C127.149 26.0813 127.045 26.6253 126.837 27.132C126.629 27.6387 126.341 28.0867 125.973 28.476C125.61 28.86 125.186 29.1613 124.701 29.38C124.221 29.5987 123.703 29.708 123.149 29.708ZM123.149 28.364C123.65 28.364 124.101 28.2333 124.501 27.972C124.906 27.7053 125.223 27.356 125.453 26.924C125.687 26.4867 125.805 26.012 125.805 25.5C125.805 24.9773 125.685 24.4973 125.445 24.06C125.21 23.6227 124.893 23.2733 124.493 23.012C124.093 22.7507 123.645 22.62 123.149 22.62C122.647 22.62 122.197 22.7533 121.797 23.02C121.397 23.2813 121.079 23.6307 120.845 24.068C120.61 24.5053 120.493 24.9827 120.493 25.5C120.493 26.0333 120.613 26.5187 120.853 26.956C121.093 27.388 121.415 27.732 121.821 27.988C122.226 28.2387 122.669 28.364 123.149 28.364ZM130.136 33.5H128.792V21.5H130.136V22.868C130.408 22.3987 130.771 22.02 131.224 21.732C131.678 21.4387 132.216 21.292 132.84 21.292C133.422 21.292 133.966 21.4013 134.472 21.62C134.984 21.8387 135.432 22.1427 135.816 22.532C136.2 22.916 136.502 23.3613 136.72 23.868C136.939 24.3747 137.048 24.9187 137.048 25.5C137.048 26.0813 136.939 26.628 136.72 27.14C136.502 27.652 136.2 28.1027 135.816 28.492C135.432 28.876 134.984 29.1773 134.472 29.396C133.966 29.6147 133.422 29.724 132.84 29.724C132.216 29.724 131.678 29.58 131.224 29.292C130.771 28.9987 130.408 28.6173 130.136 28.148V33.5ZM132.824 22.596C132.307 22.596 131.854 22.7267 131.464 22.988C131.075 23.2493 130.774 23.5987 130.56 24.036C130.352 24.4733 130.248 24.9613 130.248 25.5C130.248 26.0333 130.352 26.5213 130.56 26.964C130.774 27.4067 131.072 27.7587 131.456 28.02C131.846 28.2813 132.302 28.412 132.824 28.412C133.342 28.412 133.816 28.284 134.248 28.028C134.68 27.7667 135.027 27.4173 135.288 26.98C135.55 26.5373 135.68 26.044 135.68 25.5C135.68 24.9667 135.552 24.4813 135.296 24.044C135.04 23.6013 134.696 23.2493 134.264 22.988C133.832 22.7267 133.352 22.596 132.824 22.596ZM142.179 29.708C141.443 29.708 140.771 29.5187 140.163 29.14C139.561 28.7613 139.078 28.2547 138.715 27.62C138.358 26.98 138.179 26.2733 138.179 25.5C138.179 24.9133 138.283 24.3667 138.491 23.86C138.699 23.348 138.985 22.9 139.347 22.516C139.715 22.1267 140.142 21.8227 140.627 21.604C141.113 21.3853 141.63 21.276 142.179 21.276C142.782 21.276 143.334 21.3987 143.835 21.644C144.342 21.884 144.774 22.22 145.131 22.652C145.494 23.084 145.763 23.5853 145.939 24.156C146.121 24.7267 146.187 25.3373 146.139 25.988H139.611C139.675 26.4413 139.825 26.8467 140.059 27.204C140.294 27.556 140.593 27.836 140.955 28.044C141.323 28.252 141.731 28.3587 142.179 28.364C142.659 28.364 143.094 28.2413 143.483 27.996C143.873 27.7453 144.187 27.404 144.427 26.972L145.795 27.292C145.475 28.0013 144.993 28.5827 144.347 29.036C143.702 29.484 142.979 29.708 142.179 29.708ZM139.571 24.932H144.787C144.745 24.484 144.601 24.076 144.355 23.708C144.11 23.3347 143.798 23.036 143.419 22.812C143.041 22.588 142.627 22.476 142.179 22.476C141.731 22.476 141.321 22.5853 140.947 22.804C140.574 23.0227 140.265 23.3187 140.019 23.692C139.779 24.06 139.63 24.4733 139.571 24.932ZM147.808 29.5V21.5H149.152V22.5C149.434 22.1267 149.792 21.8307 150.224 21.612C150.656 21.388 151.125 21.276 151.632 21.276C151.941 21.276 152.24 21.316 152.528 21.396L151.984 22.74C151.765 22.6707 151.552 22.636 151.344 22.636C150.944 22.636 150.576 22.7347 150.24 22.932C149.909 23.124 149.645 23.3853 149.448 23.716C149.25 24.0467 149.152 24.4147 149.152 24.82V29.5H147.808ZM158.115 22.844H156.299L156.291 29.5H154.947L154.955 22.844H153.579V21.5H154.955L154.947 18.988H156.291L156.299 21.5H158.115V22.844ZM159.791 21.5H161.135V29.5H159.791V21.5ZM160.479 20.196C160.266 20.196 160.087 20.1267 159.943 19.988C159.799 19.8493 159.727 19.676 159.727 19.468C159.727 19.26 159.799 19.0867 159.943 18.948C160.087 18.8093 160.263 18.74 160.471 18.74C160.679 18.74 160.855 18.8093 160.999 18.948C161.143 19.0867 161.215 19.26 161.215 19.468C161.215 19.676 161.143 19.8493 160.999 19.988C160.861 20.1267 160.687 20.196 160.479 20.196ZM166.788 29.708C166.052 29.708 165.38 29.5187 164.772 29.14C164.169 28.7613 163.686 28.2547 163.324 27.62C162.966 26.98 162.788 26.2733 162.788 25.5C162.788 24.9133 162.892 24.3667 163.1 23.86C163.308 23.348 163.593 22.9 163.956 22.516C164.324 22.1267 164.75 21.8227 165.236 21.604C165.721 21.3853 166.238 21.276 166.788 21.276C167.39 21.276 167.942 21.3987 168.444 21.644C168.95 21.884 169.382 22.22 169.74 22.652C170.102 23.084 170.372 23.5853 170.548 24.156C170.729 24.7267 170.796 25.3373 170.748 25.988H164.22C164.284 26.4413 164.433 26.8467 164.668 27.204C164.902 27.556 165.201 27.836 165.564 28.044C165.932 28.252 166.34 28.3587 166.788 28.364C167.268 28.364 167.702 28.2413 168.092 27.996C168.481 27.7453 168.796 27.404 169.036 26.972L170.404 27.292C170.084 28.0013 169.601 28.5827 168.956 29.036C168.31 29.484 167.588 29.708 166.788 29.708ZM164.18 24.932H169.396C169.353 24.484 169.209 24.076 168.964 23.708C168.718 23.3347 168.406 23.036 168.028 22.812C167.649 22.588 167.236 22.476 166.788 22.476C166.34 22.476 165.929 22.5853 165.556 22.804C165.182 23.0227 164.873 23.3187 164.628 23.692C164.388 24.06 164.238 24.4733 164.18 24.932ZM174.887 29.652C174.455 29.636 174.034 29.556 173.623 29.412C173.218 29.2627 172.86 29.0627 172.551 28.812C172.247 28.556 172.026 28.2627 171.887 27.932L173.039 27.436C173.119 27.6173 173.263 27.788 173.471 27.948C173.679 28.108 173.919 28.236 174.191 28.332C174.463 28.428 174.738 28.476 175.015 28.476C175.308 28.476 175.583 28.4307 175.839 28.34C176.095 28.2493 176.303 28.116 176.463 27.94C176.628 27.7587 176.711 27.5427 176.711 27.292C176.711 27.0253 176.62 26.8173 176.439 26.668C176.263 26.5133 176.039 26.3933 175.767 26.308C175.5 26.2173 175.228 26.132 174.951 26.052C174.402 25.9133 173.911 25.748 173.479 25.556C173.047 25.3587 172.706 25.1107 172.455 24.812C172.21 24.508 172.087 24.1213 172.087 23.652C172.087 23.156 172.223 22.7267 172.495 22.364C172.772 22.0013 173.135 21.7213 173.583 21.524C174.031 21.3267 174.511 21.228 175.023 21.228C175.668 21.228 176.258 21.3667 176.791 21.644C177.324 21.9213 177.722 22.2973 177.983 22.772L176.903 23.404C176.812 23.212 176.674 23.044 176.487 22.9C176.3 22.7507 176.087 22.6333 175.847 22.548C175.607 22.4627 175.362 22.4173 175.111 22.412C174.802 22.4013 174.511 22.4413 174.239 22.532C173.972 22.6227 173.756 22.7613 173.591 22.948C173.431 23.1293 173.351 23.356 173.351 23.628C173.351 23.8947 173.436 24.0973 173.607 24.236C173.783 24.3747 174.01 24.4867 174.287 24.572C174.57 24.652 174.876 24.7453 175.207 24.852C175.692 25.0067 176.146 25.1853 176.567 25.388C176.988 25.5907 177.327 25.844 177.583 26.148C177.844 26.452 177.972 26.828 177.967 27.276C177.967 27.7667 177.82 28.196 177.527 28.564C177.234 28.9267 176.852 29.204 176.383 29.396C175.919 29.588 175.42 29.6733 174.887 29.652Z" fill="#0E4466"/>
<defs>
<clipPath id="clip0_44_13146">
<rect width="24" height="24" fill="white" transform="translate(13.5 12)"/>
</clipPath>
</defs>
</svg>
