<svg width="20" height="20" viewBox="0 0 20 20" fill="none" xmlns="http://www.w3.org/2000/svg">
<path d="M13.3354 5.00061H12.5854C12.5854 6.4275 11.4287 7.58423 10.0018 7.58423V8.33423V9.08423C12.2571 9.08423 14.0854 7.25593 14.0854 5.00061H13.3354ZM10.0018 8.33423V7.58423C8.57491 7.58423 7.41818 6.4275 7.41818 5.00061H6.66818H5.91818C5.91818 7.25593 7.74648 9.08423 10.0018 9.08423V8.33423ZM6.66818 5.00061H7.41818C7.41818 3.57372 8.57491 2.41699 10.0018 2.41699V1.66699V0.916992C7.74648 0.916992 5.91818 2.74529 5.91818 5.00061H6.66818ZM10.0018 1.66699V2.41699C11.4287 2.41699 12.5854 3.57372 12.5854 5.00061H13.3354H14.0854C14.0854 2.74529 12.2571 0.916992 10.0018 0.916992V1.66699ZM7.50159 10.8344V11.5844H12.502V10.8344V10.0844H7.50159V10.8344ZM12.502 17.5017V16.7517H7.50159V17.5017V18.2517H12.502V17.5017ZM7.50159 17.5017V16.7517C6.07469 16.7517 4.91797 15.595 4.91797 14.1681H4.16797H3.41797C3.41797 16.4234 5.24627 18.2517 7.50159 18.2517V17.5017ZM15.8356 14.1681H15.0856C15.0856 15.595 13.9289 16.7517 12.502 16.7517V17.5017V18.2517C14.7573 18.2517 16.5856 16.4234 16.5856 14.1681H15.8356ZM12.502 10.8344V11.5844C13.9289 11.5844 15.0856 12.7412 15.0856 14.1681H15.8356H16.5856C16.5856 11.9127 14.7573 10.0844 12.502 10.0844V10.8344ZM7.50159 10.8344V10.0844C5.24627 10.0844 3.41797 11.9127 3.41797 14.1681H4.16797H4.91797C4.91797 12.7412 6.07469 11.5844 7.50159 11.5844V10.8344Z" fill="#0E4466"/>
</svg>
