<svg width="48" height="48" viewBox="0 0 48 48" fill="none" xmlns="http://www.w3.org/2000/svg">
<rect width="48" height="48" rx="24" fill="#EDF7FD"/>
<path fill-rule="evenodd" clip-rule="evenodd" d="M23.1667 19.2083C21.901 19.2083 20.875 20.2343 20.875 21.5C20.875 22.7657 21.901 23.7917 23.1667 23.7917C24.4323 23.7917 25.4583 22.7657 25.4583 21.5C25.4583 20.2343 24.4323 19.2083 23.1667 19.2083ZM22.125 21.5C22.125 20.9247 22.5914 20.4583 23.1667 20.4583C23.742 20.4583 24.2083 20.9247 24.2083 21.5C24.2083 22.0753 23.742 22.5417 23.1667 22.5417C22.5914 22.5417 22.125 22.0753 22.125 21.5Z" fill="#0E4466"/>
<path fill-rule="evenodd" clip-rule="evenodd" d="M27.7196 15.9781C26.7678 15.875 25.5682 15.875 24.0377 15.875H23.9623C22.4318 15.875 21.2322 15.875 20.2804 15.9781C19.3091 16.0833 18.5221 16.3019 17.8502 16.7901C17.4434 17.0857 17.0857 17.4434 16.7901 17.8502C16.3019 18.5221 16.0833 19.3091 15.9781 20.2804C15.875 21.2322 15.875 22.4318 15.875 23.9623V24.0377C15.875 25.5682 15.875 26.7678 15.9781 27.7196C16.0833 28.6909 16.3019 29.4779 16.7901 30.1498C16.8009 30.1646 16.8117 30.1793 16.8225 30.1939C17.1117 30.5825 17.4582 30.925 17.8502 31.2099C18.5221 31.6981 19.3091 31.9167 20.2804 32.0219C21.2322 32.125 22.4318 32.125 23.9622 32.125H24.0377C25.5681 32.125 26.7678 32.125 27.7196 32.0219C28.6909 31.9167 29.4779 31.6981 30.1498 31.2099C30.5566 30.9143 30.9143 30.5566 31.2099 30.1498C31.9348 29.1521 32.0752 27.8788 32.1124 26.0838C32.125 25.4735 32.125 24.7836 32.125 24.005V23.9623C32.125 22.4319 32.125 21.2322 32.0219 20.2804C31.9167 19.3091 31.6981 18.5221 31.2099 17.8502C30.9143 17.4434 30.5566 17.0857 30.1498 16.7901C29.4779 16.3019 28.6909 16.0833 27.7196 15.9781ZM18.5849 17.8014C19.0083 17.4938 19.5501 17.3145 20.415 17.2208C21.2917 17.1259 22.4237 17.125 24 17.125C25.5763 17.125 26.7083 17.1259 27.585 17.2208C28.4499 17.3145 28.9917 17.4938 29.4151 17.8014C29.7157 18.0198 29.9802 18.2843 30.1986 18.5849C30.5062 19.0083 30.6855 19.5501 30.7792 20.415C30.8741 21.2917 30.875 22.4237 30.875 24C30.875 24.2125 30.875 24.4171 30.8747 24.6144C30.7865 24.5396 30.7029 24.4739 30.6207 24.4155C28.5614 22.9534 25.7209 23.3406 24.1281 25.3005C23.9959 25.4631 23.8693 25.6536 23.7259 25.8911L23.6218 25.8703C22.7059 25.687 22.145 25.5748 21.6185 25.586C20.2114 25.6158 18.8886 26.2628 18.0012 27.3551C17.7758 27.6325 17.5856 27.9572 17.3562 28.3984C17.2988 28.1623 17.2544 27.8943 17.2208 27.585C17.1259 26.7083 17.125 25.5763 17.125 24C17.125 22.4237 17.1259 21.2917 17.2208 20.415C17.3145 19.5501 17.4938 19.0083 17.8014 18.5849C18.0198 18.2843 18.2843 18.0198 18.5849 17.8014ZM29.897 25.4347C30.1033 25.5812 30.342 25.8107 30.8561 26.3235C30.8084 27.9658 30.6433 28.803 30.1986 29.4151C29.9802 29.7157 29.7157 29.9802 29.4151 30.1986C28.9917 30.5062 28.4499 30.6855 27.585 30.7792C26.7083 30.8741 25.5763 30.875 24 30.875C23.3818 30.875 22.832 30.8749 22.3391 30.869L24.2713 27.4504C24.3797 27.2587 24.4737 27.0923 24.5577 26.9454C24.824 26.4798 24.9679 26.2492 25.0982 26.0889C26.2754 24.6402 28.375 24.3541 29.897 25.4347ZM20.9559 30.7758C20.9471 30.7913 20.9391 30.8071 20.9318 30.823C20.7499 30.8112 20.578 30.7968 20.415 30.7792C19.5501 30.6855 19.0083 30.5062 18.5849 30.1986C18.4006 30.0647 18.2299 29.9135 18.0751 29.7473C18.5433 28.811 18.7368 28.432 18.9714 28.1433C19.6273 27.336 20.605 26.8578 21.645 26.8357C21.9657 26.8289 22.3203 26.8873 23.0702 27.0352L20.9559 30.7758Z" fill="#0E4466"/>
<path fill-rule="evenodd" clip-rule="evenodd" d="M23.1667 19.2083C21.901 19.2083 20.875 20.2343 20.875 21.5C20.875 22.7657 21.901 23.7917 23.1667 23.7917C24.4323 23.7917 25.4583 22.7657 25.4583 21.5C25.4583 20.2343 24.4323 19.2083 23.1667 19.2083ZM22.125 21.5C22.125 20.9247 22.5914 20.4583 23.1667 20.4583C23.742 20.4583 24.2083 20.9247 24.2083 21.5C24.2083 22.0753 23.742 22.5417 23.1667 22.5417C22.5914 22.5417 22.125 22.0753 22.125 21.5Z" stroke="#0E4466"/>
<path fill-rule="evenodd" clip-rule="evenodd" d="M27.7196 15.9781C26.7678 15.875 25.5682 15.875 24.0377 15.875H23.9623C22.4318 15.875 21.2322 15.875 20.2804 15.9781C19.3091 16.0833 18.5221 16.3019 17.8502 16.7901C17.4434 17.0857 17.0857 17.4434 16.7901 17.8502C16.3019 18.5221 16.0833 19.3091 15.9781 20.2804C15.875 21.2322 15.875 22.4318 15.875 23.9623V24.0377C15.875 25.5682 15.875 26.7678 15.9781 27.7196C16.0833 28.6909 16.3019 29.4779 16.7901 30.1498C16.8009 30.1646 16.8117 30.1793 16.8225 30.1939C17.1117 30.5825 17.4582 30.925 17.8502 31.2099C18.5221 31.6981 19.3091 31.9167 20.2804 32.0219C21.2322 32.125 22.4318 32.125 23.9622 32.125H24.0377C25.5681 32.125 26.7678 32.125 27.7196 32.0219C28.6909 31.9167 29.4779 31.6981 30.1498 31.2099C30.5566 30.9143 30.9143 30.5566 31.2099 30.1498C31.9348 29.1521 32.0752 27.8788 32.1124 26.0838C32.125 25.4735 32.125 24.7836 32.125 24.005V23.9623C32.125 22.4319 32.125 21.2322 32.0219 20.2804C31.9167 19.3091 31.6981 18.5221 31.2099 17.8502C30.9143 17.4434 30.5566 17.0857 30.1498 16.7901C29.4779 16.3019 28.6909 16.0833 27.7196 15.9781ZM18.5849 17.8014C19.0083 17.4938 19.5501 17.3145 20.415 17.2208C21.2917 17.1259 22.4237 17.125 24 17.125C25.5763 17.125 26.7083 17.1259 27.585 17.2208C28.4499 17.3145 28.9917 17.4938 29.4151 17.8014C29.7157 18.0198 29.9802 18.2843 30.1986 18.5849C30.5062 19.0083 30.6855 19.5501 30.7792 20.415C30.8741 21.2917 30.875 22.4237 30.875 24C30.875 24.2125 30.875 24.4171 30.8747 24.6144C30.7865 24.5396 30.7029 24.4739 30.6207 24.4155C28.5614 22.9534 25.7209 23.3406 24.1281 25.3005C23.9959 25.4631 23.8693 25.6536 23.7259 25.8911L23.6218 25.8703C22.7059 25.687 22.145 25.5748 21.6185 25.586C20.2114 25.6158 18.8886 26.2628 18.0012 27.3551C17.7758 27.6325 17.5856 27.9572 17.3562 28.3984C17.2988 28.1623 17.2544 27.8943 17.2208 27.585C17.1259 26.7083 17.125 25.5763 17.125 24C17.125 22.4237 17.1259 21.2917 17.2208 20.415C17.3145 19.5501 17.4938 19.0083 17.8014 18.5849C18.0198 18.2843 18.2843 18.0198 18.5849 17.8014ZM29.897 25.4347C30.1033 25.5812 30.342 25.8107 30.8561 26.3235C30.8084 27.9658 30.6433 28.803 30.1986 29.4151C29.9802 29.7157 29.7157 29.9802 29.4151 30.1986C28.9917 30.5062 28.4499 30.6855 27.585 30.7792C26.7083 30.8741 25.5763 30.875 24 30.875C23.3818 30.875 22.832 30.8749 22.3391 30.869L24.2713 27.4504C24.3797 27.2587 24.4737 27.0923 24.5577 26.9454C24.824 26.4798 24.9679 26.2492 25.0982 26.0889C26.2754 24.6402 28.375 24.3541 29.897 25.4347ZM20.9559 30.7758C20.9471 30.7913 20.9391 30.8071 20.9318 30.823C20.7499 30.8112 20.578 30.7968 20.415 30.7792C19.5501 30.6855 19.0083 30.5062 18.5849 30.1986C18.4006 30.0647 18.2299 29.9135 18.0751 29.7473C18.5433 28.811 18.7368 28.432 18.9714 28.1433C19.6273 27.336 20.605 26.8578 21.645 26.8357C21.9657 26.8289 22.3203 26.8873 23.0702 27.0352L20.9559 30.7758Z" stroke="#0E4466"/>
</svg>
