<svg width="20" height="20" viewBox="0 0 20 20" fill="none" xmlns="http://www.w3.org/2000/svg">
<path d="M9.54212 0.836595C9.42505 0.8323 9.30787 0.8323 9.1908 0.836595C8.41798 0.864946 7.72209 1.12774 6.95908 1.56519C6.21553 1.99148 5.35951 2.61343 4.27337 3.40256L4.27334 3.40258L4.2143 3.44548L4.21428 3.44549C3.12813 4.23462 2.27208 4.85657 1.63688 5.432C0.985054 6.02248 0.520083 6.60311 0.254307 7.32934C0.214046 7.43935 0.177833 7.5508 0.145741 7.66347C-0.0661093 8.40722 -0.0312237 9.15026 0.149035 10.0111C0.324698 10.85 0.651678 11.8563 1.06656 13.1332L1.06656 13.1332L2.51203 17.5819C2.82358 18.5407 3.71713 19.1899 4.72533 19.1899C6.01061 19.1899 7.05253 18.148 7.05253 16.8627V14.5719C7.05253 14.035 7.4878 13.5998 8.02473 13.5998H10.7082C11.2451 13.5998 11.6804 14.035 11.6804 14.5719V16.8627C11.6804 18.148 12.7223 19.1899 14.0076 19.1899C15.0158 19.1899 15.9093 18.5407 16.2209 17.5819L17.6664 13.1331C18.0812 11.8563 18.4082 10.85 18.5839 10.0111C18.7641 9.15026 18.799 8.40722 18.5872 7.66347C18.5551 7.5508 18.5189 7.43935 18.4786 7.32934C18.1654 6.87504 17.2831 7.29171 17.3048 7.75893C17.3345 7.84024 17.3613 7.92262 17.385 8.0059C17.521 8.48343 17.5176 9.00417 17.3604 9.75491C17.2002 10.52 16.8949 11.4624 16.4663 12.7816L15.0321 17.1956C14.8879 17.6394 14.4743 17.9399 14.0076 17.9399C13.4127 17.9399 12.9304 17.4576 12.9304 16.8627V14.5719C12.9304 13.3447 11.9355 12.3498 10.7082 12.3498H8.02473C6.79744 12.3498 5.80253 13.3447 5.80253 14.5719V16.8627C5.80253 17.4576 5.32025 17.9399 4.72533 17.9399C4.25866 17.9399 3.84506 17.6394 3.70085 17.1956L2.26666 12.7816C1.83803 11.4624 1.53271 10.52 1.3725 9.75491C1.2153 9.00417 1.2119 8.48343 1.34792 8.0059C1.37164 7.92262 1.39841 7.84024 1.42817 7.75893C1.59881 7.29264 1.90764 6.87336 2.47609 6.35839C3.05542 5.83359 3.85638 5.25061 4.97854 4.43531C6.10071 3.62001 6.90266 3.0384 7.58081 2.6496C8.24623 2.2681 8.74043 2.10396 9.23662 2.08575C9.32315 2.08258 9.40977 2.08258 9.4963 2.08575C9.9925 2.10396 10.4867 2.2681 11.1521 2.6496C11.7738 2.88408 12.1762 2.08575 11.7738 1.56519C11.0108 1.12774 10.3149 0.864946 9.54212 0.836595Z" fill="#FFC341"/>
<path d="M18.1654 2.70861C18.3957 2.45144 18.3739 2.05631 18.1167 1.82607C17.8595 1.59582 17.4644 1.61765 17.2341 1.87482L14.4265 5.0108C13.8576 5.64625 13.4745 6.07194 13.1469 6.34726C12.8348 6.60954 12.6516 6.66671 12.4915 6.66671C12.3314 6.66671 12.1481 6.60954 11.836 6.34726C11.5085 6.07194 11.1253 5.64625 10.5564 5.0108L9.83211 4.20179C9.60186 3.94462 9.20674 3.92279 8.94957 4.15304C8.6924 4.38328 8.67057 4.77841 8.90082 5.03557L9.65606 5.87914C10.1859 6.47101 10.6279 6.96473 11.0318 7.30415C11.459 7.66322 11.9197 7.91671 12.4915 7.91671C13.0632 7.91671 13.524 7.66322 13.9512 7.30416L15.3268 5.87915L18.1654 2.70861Z" fill="#FFC341"/>
<path d="M9.54212 0.836595C9.42505 0.8323 9.30787 0.8323 9.1908 0.836595C8.41798 0.864946 7.72209 1.12774 6.95908 1.56519C6.21553 1.99148 5.35951 2.61343 4.27337 3.40256L4.27334 3.40258L4.2143 3.44548L4.21428 3.44549C3.12813 4.23462 2.27208 4.85657 1.63688 5.432C0.985054 6.02248 0.520083 6.60311 0.254307 7.32934C0.214046 7.43935 0.177833 7.5508 0.145741 7.66347C-0.0661093 8.40722 -0.0312237 9.15026 0.149035 10.0111C0.324698 10.85 0.651678 11.8563 1.06656 13.1332L1.06656 13.1332L2.51203 17.5819C2.82358 18.5407 3.71713 19.1899 4.72533 19.1899C6.01061 19.1899 7.05253 18.148 7.05253 16.8627V14.5719C7.05253 14.035 7.4878 13.5998 8.02473 13.5998H10.7082C11.2451 13.5998 11.6804 14.035 11.6804 14.5719V16.8627C11.6804 18.148 12.7223 19.1899 14.0076 19.1899C15.0158 19.1899 15.9093 18.5407 16.2209 17.5819L17.6664 13.1331C18.0812 11.8563 18.4082 10.85 18.5839 10.0111C18.7641 9.15026 18.799 8.40722 18.5872 7.66347C18.5551 7.5508 18.5189 7.43935 18.4786 7.32934C18.1654 6.87504 17.2831 7.29171 17.3048 7.75893C17.3345 7.84024 17.3613 7.92262 17.385 8.0059C17.521 8.48343 17.5176 9.00417 17.3604 9.75491C17.2002 10.52 16.8949 11.4624 16.4663 12.7816L15.0321 17.1956C14.8879 17.6394 14.4743 17.9399 14.0076 17.9399C13.4127 17.9399 12.9304 17.4576 12.9304 16.8627V14.5719C12.9304 13.3447 11.9355 12.3498 10.7082 12.3498H8.02473C6.79744 12.3498 5.80253 13.3447 5.80253 14.5719V16.8627C5.80253 17.4576 5.32025 17.9399 4.72533 17.9399C4.25866 17.9399 3.84506 17.6394 3.70085 17.1956L2.26666 12.7816C1.83803 11.4624 1.53271 10.52 1.3725 9.75491C1.2153 9.00417 1.2119 8.48343 1.34792 8.0059C1.37164 7.92262 1.39841 7.84024 1.42817 7.75893C1.59881 7.29264 1.90764 6.87336 2.47609 6.35839C3.05542 5.83359 3.85638 5.25061 4.97854 4.43531C6.10071 3.62001 6.90266 3.0384 7.58081 2.6496C8.24623 2.2681 8.74043 2.10396 9.23662 2.08575C9.32315 2.08258 9.40977 2.08258 9.4963 2.08575C9.9925 2.10396 10.4867 2.2681 11.1521 2.6496C11.7738 2.88408 12.1762 2.08575 11.7738 1.56519C11.0108 1.12774 10.3149 0.864946 9.54212 0.836595Z" stroke="#FFC341"/>
<path d="M18.1654 2.70861C18.3957 2.45144 18.3739 2.05631 18.1167 1.82607C17.8595 1.59582 17.4644 1.61765 17.2341 1.87482L14.4265 5.0108C13.8576 5.64625 13.4745 6.07194 13.1469 6.34726C12.8348 6.60954 12.6516 6.66671 12.4915 6.66671C12.3314 6.66671 12.1481 6.60954 11.836 6.34726C11.5085 6.07194 11.1253 5.64625 10.5564 5.0108L9.83211 4.20179C9.60186 3.94462 9.20674 3.92279 8.94957 4.15304C8.6924 4.38328 8.67057 4.77841 8.90082 5.03557L9.65606 5.87914C10.1859 6.47101 10.6279 6.96473 11.0318 7.30415C11.459 7.66322 11.9197 7.91671 12.4915 7.91671C13.0632 7.91671 13.524 7.66322 13.9512 7.30416L15.3268 5.87915L18.1654 2.70861Z" stroke="#FFC341"/>
</svg>
