<svg width="129" height="48" viewBox="0 0 129 48" fill="none" xmlns="http://www.w3.org/2000/svg">
<path d="M20 24H19.25H20ZM28 24H28.75H28ZM24 28V28.75V28ZM33.2625 20.2239L33.9569 19.9405L33.2625 20.2239ZM26.0694 33.7856L26.2238 34.5195L26.0694 33.7856ZM21.9306 33.7856L21.7762 34.5195L21.9306 33.7856ZM14.7386 20.2212L14.0443 19.9376H14.0443L14.7386 20.2212ZM14.2144 26.0694L13.4805 26.2238L14.2144 26.0694ZM21.9306 14.2144L21.7762 13.4805L21.9306 14.2144ZM26.0694 14.2144L26.2238 13.4805L26.0694 14.2144ZM33.1808 20.2573L33.3985 20.975L33.1808 20.2573ZM14.818 20.2569L15.0357 19.5392L14.818 20.2569ZM33.2625 20.2239L32.5681 20.5073C33.0075 21.584 33.25 22.7627 33.25 24H34H34.75C34.75 22.5651 34.4685 21.1941 33.9569 19.9405L33.2625 20.2239ZM34 24H33.25C33.25 24.6573 33.1816 25.2978 33.0517 25.915L33.7856 26.0694L34.5195 26.2238C34.6707 25.5057 34.75 24.7617 34.75 24H34ZM33.7856 26.0694L33.0517 25.915C32.3002 29.4862 29.4862 32.3002 25.915 33.0517L26.0694 33.7856L26.2238 34.5195C30.377 33.6456 33.6456 30.377 34.5195 26.2238L33.7856 26.0694ZM26.0694 33.7856L25.915 33.0517C25.2978 33.1816 24.6573 33.25 24 33.25V34V34.75C24.7617 34.75 25.5057 34.6707 26.2238 34.5195L26.0694 33.7856ZM24 34V33.25C23.3427 33.25 22.7022 33.1816 22.085 33.0517L21.9306 33.7856L21.7762 34.5195C22.4943 34.6707 23.2383 34.75 24 34.75V34ZM14 24H14.75C14.75 22.7618 14.9929 21.5821 15.4329 20.5048L14.7386 20.2212L14.0443 19.9376C13.532 21.1919 13.25 22.564 13.25 24H14ZM21.9306 33.7856L22.085 33.0517C18.5138 32.3002 15.6998 29.4862 14.9483 25.915L14.2144 26.0694L13.4805 26.2238C14.3544 30.377 17.623 33.6456 21.7762 34.5195L21.9306 33.7856ZM14.2144 26.0694L14.9483 25.915C14.8184 25.2978 14.75 24.6573 14.75 24H14H13.25C13.25 24.7617 13.3293 25.5057 13.4805 26.2238L14.2144 26.0694ZM14.7386 20.2212L15.4329 20.5048C16.5782 17.7006 19.0609 15.5847 22.085 14.9483L21.9306 14.2144L21.7762 13.4805C18.2574 14.2209 15.3749 16.6799 14.0443 19.9376L14.7386 20.2212ZM21.9306 14.2144L22.085 14.9483C22.7022 14.8184 23.3427 14.75 24 14.75V14V13.25C23.2383 13.25 22.4943 13.3293 21.7762 13.4805L21.9306 14.2144ZM24 14V14.75C24.6573 14.75 25.2978 14.8184 25.915 14.9483L26.0694 14.2144L26.2238 13.4805C25.5057 13.3293 24.7617 13.25 24 13.25V14ZM26.0694 14.2144L25.915 14.9483C28.9401 15.5849 31.4233 17.7019 32.5681 20.5073L33.2625 20.2239L33.9569 19.9405C32.6269 16.6814 29.7437 14.2211 26.2238 13.4805L26.0694 14.2144ZM26.0694 14.2144L25.3549 14.4424C25.6308 15.3071 26.6522 18.633 27.0708 21.6889L27.8139 21.5871L28.557 21.4853C28.1197 18.2935 27.064 14.8641 26.7839 13.9864L26.0694 14.2144ZM27.8139 21.5871L27.0708 21.6889C27.183 22.5078 27.25 23.2943 27.25 24H28H28.75C28.75 23.2056 28.6751 22.3476 28.557 21.4853L27.8139 21.5871ZM33.1808 20.2573L32.9632 19.5396C31.8657 19.8724 29.8043 20.457 27.6778 20.8495L27.8139 21.5871L27.95 22.3246C30.1556 21.9175 32.2773 21.315 33.3985 20.975L33.1808 20.2573ZM27.8139 21.5871L27.6778 20.8495C26.3878 21.0876 25.0997 21.25 24 21.25V22V22.75C25.2292 22.75 26.6179 22.5705 27.95 22.3246L27.8139 21.5871ZM28 24H27.25C27.25 25.0455 27.1032 26.2621 26.8836 27.4899L27.6219 27.6219L28.3602 27.7539C28.5874 26.4833 28.75 25.1698 28.75 24H28ZM27.6219 27.6219L26.8836 27.4899C26.4025 30.1811 25.5941 32.808 25.3549 33.5576L26.0694 33.7856L26.7839 34.0136C27.0294 33.2443 27.8615 30.5432 28.3602 27.7539L27.6219 27.6219ZM33.7856 26.0694L33.5576 25.3549C32.808 25.5941 30.1811 26.4025 27.4899 26.8836L27.6219 27.6219L27.7539 28.3602C30.5432 27.8615 33.2443 27.0294 34.0136 26.7839L33.7856 26.0694ZM27.6219 27.6219L27.4899 26.8836C26.2621 27.1032 25.0455 27.25 24 27.25V28V28.75C25.1698 28.75 26.4833 28.5874 27.7539 28.3602L27.6219 27.6219ZM24 28V27.25C22.9545 27.25 21.7379 27.1032 20.5101 26.8836L20.3781 27.6219L20.2461 28.3602C21.5167 28.5874 22.8302 28.75 24 28.75V28ZM20.3781 27.6219L20.5101 26.8836C17.8189 26.4025 15.192 25.5941 14.4424 25.3549L14.2144 26.0694L13.9864 26.7839C14.7557 27.0294 17.4568 27.8615 20.2461 28.3602L20.3781 27.6219ZM20 24H19.25C19.25 25.1698 19.4126 26.4833 19.6398 27.7539L20.3781 27.6219L21.1164 27.4899C20.8968 26.2621 20.75 25.0455 20.75 24H20ZM20.3781 27.6219L19.6398 27.7539C20.1385 30.5432 20.9706 33.2443 21.2161 34.0136L21.9306 33.7856L22.6451 33.5576C22.4059 32.808 21.5975 30.1811 21.1164 27.4899L20.3781 27.6219ZM21.9306 14.2144L21.2161 13.9864C20.936 14.8641 19.8803 18.2935 19.443 21.4853L20.1861 21.5871L20.9292 21.6889C21.3478 18.633 22.3692 15.3071 22.6451 14.4424L21.9306 14.2144ZM20.1861 21.5871L19.443 21.4853C19.3249 22.3476 19.25 23.2056 19.25 24H20H20.75C20.75 23.2943 20.817 22.5078 20.9292 21.6889L20.1861 21.5871ZM24 22V21.25C22.9003 21.25 21.6122 21.0876 20.3222 20.8495L20.1861 21.5871L20.05 22.3246C21.3821 22.5705 22.7708 22.75 24 22.75V22ZM20.1861 21.5871L20.3222 20.8495C18.1949 20.4569 16.1329 19.872 15.0357 19.5392L14.818 20.2569L14.6003 20.9746C15.7211 21.3146 17.8436 21.9174 20.05 22.3246L20.1861 21.5871ZM33.2625 20.2239L32.9169 19.5583C32.9302 19.5514 32.946 19.5448 32.9632 19.5396L33.1808 20.2573L33.3985 20.975C33.4725 20.9525 33.5421 20.9238 33.6081 20.8895L33.2625 20.2239ZM14.7386 20.2212L14.3473 20.861C14.425 20.9086 14.5094 20.9471 14.6003 20.9746L14.818 20.2569L15.0357 19.5392C15.0703 19.5497 15.1023 19.5645 15.1299 19.5814L14.7386 20.2212Z" fill="#757575"/>
<path d="M44.96 29.5V18.3H46.304V28.156H51.32V29.5H44.96ZM59.0558 21.5H60.3998V29.5H59.0558L58.9998 28.148C58.7491 28.612 58.4024 28.988 57.9598 29.276C57.5224 29.564 56.9998 29.708 56.3918 29.708C55.8051 29.708 55.2558 29.5987 54.7438 29.38C54.2318 29.156 53.7784 28.8493 53.3838 28.46C52.9944 28.0653 52.6904 27.612 52.4718 27.1C52.2531 26.588 52.1438 26.036 52.1438 25.444C52.1438 24.8733 52.2504 24.3347 52.4638 23.828C52.6771 23.3213 52.9731 22.8787 53.3518 22.5C53.7358 22.116 54.1784 21.8173 54.6798 21.604C55.1811 21.3853 55.7198 21.276 56.2958 21.276C56.9251 21.276 57.4771 21.4253 57.9518 21.724C58.4264 22.0173 58.8104 22.3987 59.1038 22.868L59.0558 21.5ZM56.3678 28.404C56.8958 28.404 57.3518 28.276 57.7358 28.02C58.1251 27.7587 58.4238 27.4067 58.6318 26.964C58.8451 26.5213 58.9518 26.0333 58.9518 25.5C58.9518 24.956 58.8451 24.4653 58.6318 24.028C58.4184 23.5853 58.1171 23.236 57.7278 22.98C57.3438 22.7187 56.8904 22.588 56.3678 22.588C55.8398 22.588 55.3598 22.7187 54.9278 22.98C54.4958 23.2413 54.1518 23.5933 53.8958 24.036C53.6451 24.4733 53.5198 24.9613 53.5198 25.5C53.5198 26.0387 53.6504 26.5293 53.9118 26.972C54.1731 27.4093 54.5198 27.7587 54.9518 28.02C55.3838 28.276 55.8558 28.404 56.3678 28.404ZM69.3907 24.524V29.5H68.0467V24.82C68.0467 24.4147 67.9481 24.0467 67.7507 23.716C67.5534 23.3853 67.2894 23.124 66.9587 22.932C66.6281 22.7347 66.2601 22.636 65.8547 22.636C65.4547 22.636 65.0867 22.7347 64.7507 22.932C64.4201 23.124 64.1561 23.3853 63.9587 23.716C63.7614 24.0467 63.6627 24.4147 63.6627 24.82V29.5H62.3187V21.5H63.6627V22.5C63.9454 22.1267 64.3027 21.8307 64.7347 21.612C65.1667 21.388 65.6361 21.276 66.1427 21.276C66.7401 21.276 67.2841 21.4227 67.7747 21.716C68.2707 22.004 68.6627 22.3933 68.9507 22.884C69.2441 23.3747 69.3907 23.9213 69.3907 24.524ZM77.4024 21.5H78.7464V29.756C78.7464 30.284 78.6317 30.7747 78.4024 31.228C78.1784 31.6867 77.8744 32.084 77.4904 32.42C77.1064 32.7613 76.669 33.0253 76.1784 33.212C75.6877 33.404 75.1757 33.5 74.6424 33.5C74.0877 33.5 73.5517 33.3747 73.0344 33.124C72.517 32.8787 72.0637 32.548 71.6744 32.132C71.2904 31.7213 71.013 31.26 70.8424 30.748L72.0744 30.188C72.1757 30.556 72.357 30.8867 72.6184 31.18C72.885 31.4787 73.1944 31.7133 73.5464 31.884C73.9037 32.06 74.269 32.148 74.6424 32.148C74.9944 32.148 75.333 32.0867 75.6584 31.964C75.989 31.8413 76.285 31.6707 76.5464 31.452C76.813 31.2387 77.021 30.9853 77.1704 30.692C77.325 30.404 77.4024 30.092 77.4024 29.756V28.164C77.1304 28.6227 76.7704 28.996 76.3224 29.284C75.8797 29.5667 75.3624 29.708 74.7704 29.708C74.205 29.708 73.6744 29.5987 73.1784 29.38C72.6824 29.1613 72.2477 28.86 71.8744 28.476C71.501 28.0867 71.2077 27.6387 70.9944 27.132C70.781 26.6253 70.6744 26.0813 70.6744 25.5C70.6744 24.9187 70.781 24.3747 70.9944 23.868C71.2077 23.356 71.501 22.908 71.8744 22.524C72.2477 22.1347 72.6824 21.8307 73.1784 21.612C73.6744 21.3933 74.205 21.284 74.7704 21.284C75.3624 21.284 75.8797 21.4253 76.3224 21.708C76.7704 21.9907 77.1304 22.364 77.4024 22.828V21.5ZM74.7784 28.404C75.2957 28.404 75.7437 28.2707 76.1224 28.004C76.5064 27.7373 76.8024 27.3827 77.0104 26.94C77.2184 26.4973 77.3224 26.0173 77.3224 25.5C77.3224 24.9667 77.2157 24.4813 77.0024 24.044C76.7944 23.6013 76.4984 23.2493 76.1144 22.988C75.7357 22.7213 75.2904 22.588 74.7784 22.588C74.277 22.588 73.8184 22.7187 73.4024 22.98C72.9864 23.2413 72.6557 23.5933 72.4104 24.036C72.1704 24.4733 72.0504 24.9613 72.0504 25.5C72.0504 26.0387 72.173 26.5293 72.4184 26.972C72.669 27.4093 72.9997 27.7587 73.4104 28.02C73.8264 28.276 74.2824 28.404 74.7784 28.404ZM80.5294 26.46V21.5H81.8734V26.164C81.8734 26.5693 81.972 26.9373 82.1694 27.268C82.3667 27.5987 82.6307 27.8627 82.9614 28.06C83.2974 28.252 83.6654 28.348 84.0654 28.348C84.4707 28.348 84.836 28.252 85.1614 28.06C85.492 27.8627 85.756 27.5987 85.9534 27.268C86.1507 26.9373 86.2494 26.5693 86.2494 26.164V21.5H87.5934L87.6014 29.5H86.2574L86.2494 28.484C85.9667 28.8573 85.6094 29.156 85.1774 29.38C84.7454 29.5987 84.2787 29.708 83.7774 29.708C83.18 29.708 82.6334 29.564 82.1374 29.276C81.6467 28.9827 81.2547 28.5907 80.9614 28.1C80.6734 27.6093 80.5294 27.0627 80.5294 26.46ZM95.8826 21.5H97.2266V29.5H95.8826L95.8266 28.148C95.576 28.612 95.2293 28.988 94.7866 29.276C94.3493 29.564 93.8266 29.708 93.2186 29.708C92.632 29.708 92.0826 29.5987 91.5706 29.38C91.0586 29.156 90.6053 28.8493 90.2106 28.46C89.8213 28.0653 89.5173 27.612 89.2986 27.1C89.08 26.588 88.9706 26.036 88.9706 25.444C88.9706 24.8733 89.0773 24.3347 89.2906 23.828C89.504 23.3213 89.8 22.8787 90.1786 22.5C90.5626 22.116 91.0053 21.8173 91.5066 21.604C92.008 21.3853 92.5466 21.276 93.1226 21.276C93.752 21.276 94.304 21.4253 94.7786 21.724C95.2533 22.0173 95.6373 22.3987 95.9306 22.868L95.8826 21.5ZM93.1946 28.404C93.7226 28.404 94.1786 28.276 94.5626 28.02C94.952 27.7587 95.2506 27.4067 95.4586 26.964C95.672 26.5213 95.7786 26.0333 95.7786 25.5C95.7786 24.956 95.672 24.4653 95.4586 24.028C95.2453 23.5853 94.944 23.236 94.5546 22.98C94.1706 22.7187 93.7173 22.588 93.1946 22.588C92.6666 22.588 92.1866 22.7187 91.7546 22.98C91.3226 23.2413 90.9786 23.5933 90.7226 24.036C90.472 24.4733 90.3466 24.9613 90.3466 25.5C90.3466 26.0387 90.4773 26.5293 90.7386 26.972C91 27.4093 91.3466 27.7587 91.7786 28.02C92.2106 28.276 92.6826 28.404 93.1946 28.404ZM105.237 21.5H106.581V29.756C106.581 30.284 106.467 30.7747 106.237 31.228C106.013 31.6867 105.709 32.084 105.325 32.42C104.941 32.7613 104.504 33.0253 104.013 33.212C103.523 33.404 103.011 33.5 102.477 33.5C101.923 33.5 101.387 33.3747 100.869 33.124C100.352 32.8787 99.8987 32.548 99.5094 32.132C99.1254 31.7213 98.848 31.26 98.6774 30.748L99.9094 30.188C100.011 30.556 100.192 30.8867 100.453 31.18C100.72 31.4787 101.029 31.7133 101.381 31.884C101.739 32.06 102.104 32.148 102.477 32.148C102.829 32.148 103.168 32.0867 103.493 31.964C103.824 31.8413 104.12 31.6707 104.381 31.452C104.648 31.2387 104.856 30.9853 105.005 30.692C105.16 30.404 105.237 30.092 105.237 29.756V28.164C104.965 28.6227 104.605 28.996 104.157 29.284C103.715 29.5667 103.197 29.708 102.605 29.708C102.04 29.708 101.509 29.5987 101.013 29.38C100.517 29.1613 100.083 28.86 99.7094 28.476C99.336 28.0867 99.0427 27.6387 98.8294 27.132C98.616 26.6253 98.5094 26.0813 98.5094 25.5C98.5094 24.9187 98.616 24.3747 98.8294 23.868C99.0427 23.356 99.336 22.908 99.7094 22.524C100.083 22.1347 100.517 21.8307 101.013 21.612C101.509 21.3933 102.04 21.284 102.605 21.284C103.197 21.284 103.715 21.4253 104.157 21.708C104.605 21.9907 104.965 22.364 105.237 22.828V21.5ZM102.613 28.404C103.131 28.404 103.579 28.2707 103.957 28.004C104.341 27.7373 104.637 27.3827 104.845 26.94C105.053 26.4973 105.157 26.0173 105.157 25.5C105.157 24.9667 105.051 24.4813 104.837 24.044C104.629 23.6013 104.333 23.2493 103.949 22.988C103.571 22.7213 103.125 22.588 102.613 22.588C102.112 22.588 101.653 22.7187 101.237 22.98C100.821 23.2413 100.491 23.5933 100.245 24.036C100.005 24.4733 99.8854 24.9613 99.8854 25.5C99.8854 26.0387 100.008 26.5293 100.253 26.972C100.504 27.4093 100.835 27.7587 101.245 28.02C101.661 28.276 102.117 28.404 102.613 28.404ZM112.236 29.708C111.5 29.708 110.828 29.5187 110.22 29.14C109.617 28.7613 109.134 28.2547 108.772 27.62C108.414 26.98 108.236 26.2733 108.236 25.5C108.236 24.9133 108.34 24.3667 108.548 23.86C108.756 23.348 109.041 22.9 109.404 22.516C109.772 22.1267 110.198 21.8227 110.684 21.604C111.169 21.3853 111.686 21.276 112.236 21.276C112.838 21.276 113.39 21.3987 113.892 21.644C114.398 21.884 114.83 22.22 115.188 22.652C115.55 23.084 115.82 23.5853 115.996 24.156C116.177 24.7267 116.244 25.3373 116.196 25.988H109.668C109.732 26.4413 109.881 26.8467 110.116 27.204C110.35 27.556 110.649 27.836 111.012 28.044C111.38 28.252 111.788 28.3587 112.236 28.364C112.716 28.364 113.15 28.2413 113.54 27.996C113.929 27.7453 114.244 27.404 114.484 26.972L115.852 27.292C115.532 28.0013 115.049 28.5827 114.404 29.036C113.758 29.484 113.036 29.708 112.236 29.708ZM109.628 24.932H114.844C114.801 24.484 114.657 24.076 114.412 23.708C114.166 23.3347 113.854 23.036 113.476 22.812C113.097 22.588 112.684 22.476 112.236 22.476C111.788 22.476 111.377 22.5853 111.004 22.804C110.63 23.0227 110.321 23.3187 110.076 23.692C109.836 24.06 109.686 24.4733 109.628 24.932Z" fill="#757575"/>
</svg>
