<svg width="20" height="20" viewBox="0 0 20 20" fill="none" xmlns="http://www.w3.org/2000/svg">
<g clip-path="url(#clip0_44_12388)">
<path d="M6.66594 18.672C7.50195 18.7733 8.56283 18.7733 9.99927 18.7733C11.4357 18.7733 12.4966 18.7733 13.3326 18.672M6.66594 18.672C5.90321 18.5796 5.32765 18.4029 4.8248 18.0651C4.74025 18.0082 4.65781 17.9483 4.57764 17.8855C3.57835 17.1019 3.15392 15.7957 2.30506 13.1831C1.4562 10.5706 1.03177 9.26434 1.37964 8.04306C1.40755 7.94508 1.43904 7.84817 1.47405 7.75251C1.91047 6.55999 3.02164 5.75268 5.24399 4.13805C7.46634 2.52342 8.57751 1.7161 9.84652 1.66955C9.94832 1.66581 10.0502 1.66581 10.152 1.66955C11.421 1.7161 12.5322 2.52342 14.7546 4.13805C16.9769 5.75268 18.0881 6.55999 18.5245 7.75251C18.5595 7.84817 18.591 7.94508 18.6189 8.04306C18.9668 9.26434 18.5423 10.5706 17.6935 13.1831C16.8446 15.7957 16.4202 17.1019 15.4209 17.8855C15.3407 17.9483 15.2583 18.0082 15.1737 18.0651C14.6709 18.4029 14.0953 18.5796 13.3326 18.672M6.66594 18.672V18.5998V15.6831C6.66594 13.8422 8.15832 12.3498 9.99927 12.3498C11.8402 12.3498 13.3326 13.8422 13.3326 15.6831V18.5998V18.672" stroke="#0E4466" stroke-width="1.5"/>
</g>
<defs>
<clipPath id="clip0_44_12388">
<rect width="20" height="20" fill="white"/>
</clipPath>
</defs>
</svg>
