<svg width="60" height="60" viewBox="0 0 60 60" fill="none" xmlns="http://www.w3.org/2000/svg">
<path fill-rule="evenodd" clip-rule="evenodd" d="M28.9501 17.4583C24.9886 17.4583 21.9235 20.9303 22.4149 24.8612L22.5075 25.6018C22.6429 26.6856 22.2471 27.7682 21.4444 28.5089C19.7811 30.0437 19.319 32.4867 20.3067 34.523L20.4273 34.7716C21.348 36.6697 23.2722 37.8749 25.3818 37.8749H34.9727C36.7924 37.8749 38.486 36.9453 39.463 35.4102C40.8421 33.2431 40.4769 30.4003 38.5947 28.6524L38.5435 28.6048C37.6819 27.8046 37.2576 26.6389 37.4035 25.4721L37.4789 24.869C37.9708 20.934 34.9025 17.4583 30.9368 17.4583H28.9501ZM24.1514 24.6441C23.7906 21.7577 26.0412 19.2083 28.9501 19.2083H30.9368C33.8498 19.2083 36.1037 21.7614 35.7424 24.6519L35.667 25.255C35.4514 26.9803 36.0786 28.704 37.3526 29.8871L37.4038 29.9347C38.6671 31.1079 38.9123 33.016 37.9866 34.4706C37.3309 35.5009 36.1941 36.1249 34.9727 36.1249H25.3818C23.9426 36.1249 22.63 35.3027 22.0019 34.0078L21.8813 33.7592C21.2302 32.417 21.5348 30.8067 22.6312 29.7949C23.8489 28.6712 24.4495 27.0289 24.244 25.3848L24.1514 24.6441Z" fill="#757575"/>
<path d="M27.414 39.9749C27.1241 39.5883 26.5756 39.51 26.189 39.7999C25.8024 40.0899 25.7241 40.6383 26.014 41.0249L26.364 41.4916C28.289 44.0583 32.139 44.0583 34.064 41.4916L34.414 41.0249C34.704 40.6383 34.6256 40.0899 34.239 39.7999C33.8524 39.51 33.304 39.5883 33.014 39.9749L32.664 40.4416C31.439 42.0749 28.989 42.0749 27.764 40.4416L27.414 39.9749Z" fill="#757575"/>
<path fill-rule="evenodd" clip-rule="evenodd" d="M28.9501 17.4583C24.9886 17.4583 21.9235 20.9303 22.4149 24.8612L22.5075 25.6018C22.6429 26.6856 22.2471 27.7682 21.4444 28.5089C19.7811 30.0437 19.319 32.4867 20.3067 34.523L20.4273 34.7716C21.348 36.6697 23.2722 37.8749 25.3818 37.8749H34.9727C36.7924 37.8749 38.486 36.9453 39.463 35.4102C40.8421 33.2431 40.4769 30.4003 38.5947 28.6524L38.5435 28.6048C37.6819 27.8046 37.2576 26.6389 37.4035 25.4721L37.4789 24.869C37.9708 20.934 34.9025 17.4583 30.9368 17.4583H28.9501ZM24.1514 24.6441C23.7906 21.7577 26.0412 19.2083 28.9501 19.2083H30.9368C33.8498 19.2083 36.1037 21.7614 35.7424 24.6519L35.667 25.255C35.4514 26.9803 36.0786 28.704 37.3526 29.8871L37.4038 29.9347C38.6671 31.1079 38.9123 33.016 37.9866 34.4706C37.3309 35.5009 36.1941 36.1249 34.9727 36.1249H25.3818C23.9426 36.1249 22.63 35.3027 22.0019 34.0078L21.8813 33.7592C21.2302 32.417 21.5348 30.8067 22.6312 29.7949C23.8489 28.6712 24.4495 27.0289 24.244 25.3848L24.1514 24.6441Z" stroke="#757575"/>
<path d="M27.414 39.9749C27.1241 39.5883 26.5756 39.51 26.189 39.7999C25.8024 40.0899 25.7241 40.6383 26.014 41.0249L26.364 41.4916C28.289 44.0583 32.139 44.0583 34.064 41.4916L34.414 41.0249C34.704 40.6383 34.6256 40.0899 34.239 39.7999C33.8524 39.51 33.304 39.5883 33.014 39.9749L32.664 40.4416C31.439 42.0749 28.989 42.0749 27.764 40.4416L27.414 39.9749Z" stroke="#757575"/>
</svg>
