<svg width="28" height="28" viewBox="0 0 28 28" fill="none" xmlns="http://www.w3.org/2000/svg">
<path fill-rule="evenodd" clip-rule="evenodd" d="M14 9.62502C11.5837 9.62502 9.62499 11.5838 9.62499 14C9.62499 16.4163 11.5837 18.375 14 18.375C16.4162 18.375 18.375 16.4163 18.375 14C18.375 11.5838 16.4162 9.62502 14 9.62502ZM11.375 14C11.375 12.5503 12.5502 11.375 14 11.375C15.4497 11.375 16.625 12.5503 16.625 14C16.625 15.4498 15.4497 16.625 14 16.625C12.5502 16.625 11.375 15.4498 11.375 14Z" fill="#8F8F8F"/>
<path fill-rule="evenodd" clip-rule="evenodd" d="M14 3.79169C11.5022 3.79169 9.24377 5.02718 7.41033 6.52835C5.56689 8.03773 4.05953 9.89178 3.04663 11.3027L2.9631 11.4189C2.35332 12.2662 1.85138 12.9636 1.85138 14C1.85138 15.0364 2.35332 15.7339 2.9631 16.5812L3.04663 16.6973C4.05954 18.1083 5.56689 19.9623 7.41033 21.4717C9.24377 22.9729 11.5022 24.2084 14 24.2084C16.4978 24.2084 18.7562 22.9729 20.5896 21.4717C22.4331 19.9623 23.9404 18.1083 24.9533 16.6973L25.0369 16.5812C25.6466 15.7339 26.1486 15.0364 26.1486 14C26.1486 12.9636 25.6466 12.2662 25.0369 11.4189L24.9533 11.3027C23.9404 9.89178 22.4331 8.03773 20.5896 6.52835C18.7562 5.02718 16.4978 3.79169 14 3.79169ZM4.46823 12.3233C5.43571 10.9756 6.84071 9.25652 8.51898 7.88238C10.2073 6.50006 12.0799 5.54169 14 5.54169C15.9201 5.54169 17.7927 6.50006 19.481 7.88238C21.1593 9.25652 22.5643 10.9756 23.5317 12.3233C24.2597 13.3373 24.3986 13.5817 24.3986 14C24.3986 14.4183 24.2597 14.6628 23.5317 15.6768C22.5643 17.0244 21.1593 18.7435 19.481 20.1177C17.7927 21.5 15.9201 22.4584 14 22.4584C12.0799 22.4584 10.2073 21.5 8.51898 20.1177C6.84071 18.7435 5.43571 17.0244 4.46823 15.6768C3.74027 14.6628 3.60138 14.4183 3.60138 14C3.60138 13.5817 3.74027 13.3373 4.46823 12.3233Z" fill="#8F8F8F"/>
<path fill-rule="evenodd" clip-rule="evenodd" d="M14 9.62502C11.5837 9.62502 9.62499 11.5838 9.62499 14C9.62499 16.4163 11.5837 18.375 14 18.375C16.4162 18.375 18.375 16.4163 18.375 14C18.375 11.5838 16.4162 9.62502 14 9.62502ZM11.375 14C11.375 12.5503 12.5502 11.375 14 11.375C15.4497 11.375 16.625 12.5503 16.625 14C16.625 15.4498 15.4497 16.625 14 16.625C12.5502 16.625 11.375 15.4498 11.375 14Z" stroke="#8F8F8F"/>
<path fill-rule="evenodd" clip-rule="evenodd" d="M14 3.79169C11.5022 3.79169 9.24377 5.02718 7.41033 6.52835C5.56689 8.03773 4.05953 9.89178 3.04663 11.3027L2.9631 11.4189C2.35332 12.2662 1.85138 12.9636 1.85138 14C1.85138 15.0364 2.35332 15.7339 2.9631 16.5812L3.04663 16.6973C4.05954 18.1083 5.56689 19.9623 7.41033 21.4717C9.24377 22.9729 11.5022 24.2084 14 24.2084C16.4978 24.2084 18.7562 22.9729 20.5896 21.4717C22.4331 19.9623 23.9404 18.1083 24.9533 16.6973L25.0369 16.5812C25.6466 15.7339 26.1486 15.0364 26.1486 14C26.1486 12.9636 25.6466 12.2662 25.0369 11.4189L24.9533 11.3027C23.9404 9.89178 22.4331 8.03773 20.5896 6.52835C18.7562 5.02718 16.4978 3.79169 14 3.79169ZM4.46823 12.3233C5.43571 10.9756 6.84071 9.25652 8.51898 7.88238C10.2073 6.50006 12.0799 5.54169 14 5.54169C15.9201 5.54169 17.7927 6.50006 19.481 7.88238C21.1593 9.25652 22.5643 10.9756 23.5317 12.3233C24.2597 13.3373 24.3986 13.5817 24.3986 14C24.3986 14.4183 24.2597 14.6628 23.5317 15.6768C22.5643 17.0244 21.1593 18.7435 19.481 20.1177C17.7927 21.5 15.9201 22.4584 14 22.4584C12.0799 22.4584 10.2073 21.5 8.51898 20.1177C6.84071 18.7435 5.43571 17.0244 4.46823 15.6768C3.74027 14.6628 3.60138 14.4183 3.60138 14C3.60138 13.5817 3.74027 13.3373 4.46823 12.3233Z" stroke="#8F8F8F"/>
</svg>
