<svg width="28" height="28" viewBox="0 0 28 28" fill="none" xmlns="http://www.w3.org/2000/svg">
<path fill-rule="evenodd" clip-rule="evenodd" d="M9.4638 3.47089C8.23637 2.34304 6.34969 2.34304 5.12225 3.47089C5.07198 3.51708 5.01832 3.57076 4.94863 3.64046L3.90156 4.68753C2.84793 5.74117 2.40562 7.26007 2.72886 8.71465C4.56283 16.9675 11.0081 23.4128 19.261 25.2467C20.7155 25.57 22.2344 25.1277 23.2881 24.074L24.335 23.0271C24.4048 22.9573 24.4585 22.9036 24.5047 22.8534C25.6326 21.6259 25.6326 19.7392 24.5047 18.5118C24.4585 18.4615 24.4048 18.4078 24.3351 18.3381L22.6209 16.6239C21.4308 15.4338 19.6335 15.0935 18.0906 15.766C17.2073 16.151 16.1784 15.9561 15.4971 15.2748L12.7008 12.4785C12.0195 11.7972 11.8246 10.7683 12.2096 9.88497C12.8822 8.3421 12.5418 6.54481 11.3517 5.35469L9.63744 3.64047C9.56775 3.57077 9.51408 3.51709 9.4638 3.47089ZM6.30631 4.7595C6.86424 4.24683 7.72182 4.24683 8.27974 4.7595C8.299 4.77719 8.32425 4.80216 8.41299 4.8909L10.1142 6.59213C10.7956 7.27347 10.9904 8.3024 10.6054 9.18569C9.93286 10.7286 10.2732 12.5259 11.4634 13.716L14.2596 16.5122C15.4498 17.7024 17.247 18.0427 18.7899 17.3702C19.6732 16.9852 20.7021 17.18 21.3835 17.8614L23.0847 19.5626C23.1734 19.6514 23.1984 19.6766 23.2161 19.6959C23.7288 20.2538 23.7288 21.1114 23.2161 21.6693C23.1984 21.6886 23.1734 21.7138 23.0847 21.8025L22.0506 22.8366C21.4201 23.4672 20.5111 23.7319 19.6406 23.5384C12.051 21.8519 6.12376 15.9246 4.43719 8.33502C4.24374 7.46452 4.50845 6.55552 5.139 5.92497L6.17306 4.8909C6.26181 4.80216 6.28705 4.77719 6.30631 4.7595Z" fill="#757575"/>
</svg>
