<svg width="28" height="28" viewBox="0 0 28 28" fill="none" xmlns="http://www.w3.org/2000/svg">
<path fill-rule="evenodd" clip-rule="evenodd" d="M18.6121 3.86064C17.7138 3.79174 16.6057 3.79174 15.196 3.79175H13.2288C11.8192 3.79174 10.7111 3.79174 9.81274 3.86064C8.89581 3.93097 8.13195 4.07651 7.42198 4.40198C6.24897 4.93972 5.25594 5.80436 4.56195 6.89224C4.38076 7.17626 4.23069 7.47574 4.10266 7.79876C3.6671 8.8977 3.46573 10.3482 3.17272 12.4588L3.14793 12.6373C2.89838 14.434 2.70329 15.8386 2.64403 16.97C2.58387 18.1188 2.65665 19.076 3.00222 19.9549C3.56703 21.3913 4.60989 22.589 5.95496 23.3461C6.77792 23.8093 7.71607 24.013 8.86216 24.1115C9.99094 24.2084 11.409 24.2084 13.223 24.2084H15.2018C17.0158 24.2084 18.4339 24.2084 19.5627 24.1115C20.7088 24.013 21.6469 23.8093 22.4699 23.3461C23.815 22.589 24.8578 21.3913 25.4226 19.9549C25.7682 19.076 25.841 18.1188 25.7808 16.97C25.7216 15.8386 25.5265 14.434 25.2769 12.6371L25.2485 12.4323C24.938 10.1959 24.7302 8.69815 24.2237 7.56492C24.1184 7.32908 23.9993 7.10606 23.8629 6.89224C23.1689 5.80436 22.1759 4.93972 21.0029 4.40198C20.2929 4.07651 19.529 3.93097 18.6121 3.86064ZM8.15124 5.99279C8.59879 5.78762 9.13384 5.66785 9.94657 5.60552C10.7702 5.54235 11.8113 5.54175 13.265 5.54175H15.1599C16.6135 5.54175 17.6546 5.54235 18.4783 5.60552C19.291 5.66785 19.8261 5.78762 20.2736 5.99279C21.1162 6.37903 21.8331 6.99346 22.3436 7.76575L21.7017 8.40763C19.7398 10.3696 18.3293 11.7775 17.1127 12.7057C15.9162 13.6185 15.0107 13.9847 14.0709 13.9847C13.131 13.9847 12.2255 13.6185 11.0291 12.7057C9.81246 11.7775 8.40194 10.3696 6.44 8.40763L5.97227 7.9399C5.99343 7.90368 6.0151 7.86822 6.03731 7.83341C6.55026 7.02933 7.28423 6.39025 8.15124 5.99279ZM23.0199 9.56435C23.1884 10.3432 23.3345 11.3729 23.5378 12.8365C23.7943 14.6837 23.9783 16.014 24.0332 17.0616C24.0876 18.1005 24.0079 18.7706 23.794 19.3145C23.3765 20.3762 22.6057 21.2615 21.6115 21.821C21.1022 22.1077 20.4494 22.2789 19.4129 22.3679C18.3678 22.4577 17.0248 22.4584 15.1599 22.4584H13.265C11.4001 22.4584 10.057 22.4577 9.01192 22.3679C7.97541 22.2789 7.32266 22.1077 6.8133 21.821C5.81912 21.2615 5.04831 20.3762 4.63084 19.3145C4.41696 18.7706 4.33723 18.1005 4.39164 17.0616C4.4465 16.014 4.63051 14.6837 4.88706 12.8365C5.07027 11.5174 5.20674 10.5499 5.35632 9.79882C7.20998 11.6524 8.67129 13.108 9.96756 14.097C11.3196 15.1286 12.5945 15.7347 14.0709 15.7347C15.5472 15.7347 16.8221 15.1286 18.1742 14.097C19.4951 13.0891 20.9875 11.5967 22.8918 9.69241L23.0199 9.56435Z" fill="#757575"/>
</svg>
