<svg width="60" height="60" viewBox="0 0 60 60" fill="none" xmlns="http://www.w3.org/2000/svg">
<path d="M34.6666 22.9999H33.9166C33.9166 25.163 32.163 26.9166 29.9999 26.9166V27.6666V28.4166C32.9915 28.4166 35.4166 25.9915 35.4166 22.9999H34.6666ZM29.9999 27.6666V26.9166C27.8368 26.9166 26.0833 25.163 26.0833 22.9999H25.3333H24.5833C24.5833 25.9915 27.0084 28.4166 29.9999 28.4166V27.6666ZM25.3333 22.9999H26.0833C26.0833 20.8368 27.8368 19.0833 29.9999 19.0833V18.3333V17.5833C27.0084 17.5833 24.5833 20.0084 24.5833 22.9999H25.3333ZM29.9999 18.3333V19.0833C32.163 19.0833 33.9166 20.8368 33.9166 22.9999H34.6666H35.4166C35.4166 20.0084 32.9915 17.5833 29.9999 17.5833V18.3333ZM26.4999 31.1666V31.9166H33.4999V31.1666V30.4166H26.4999V31.1666ZM33.4999 40.4999V39.7499H26.4999V40.4999V41.2499H33.4999V40.4999ZM26.4999 40.4999V39.7499C24.3368 39.7499 22.5833 37.9964 22.5833 35.8333H21.8333H21.0833C21.0833 38.8248 23.5084 41.2499 26.4999 41.2499V40.4999ZM38.1666 35.8333H37.4166C37.4166 37.9964 35.663 39.7499 33.4999 39.7499V40.4999V41.2499C36.4915 41.2499 38.9166 38.8248 38.9166 35.8333H38.1666ZM33.4999 31.1666V31.9166C35.663 31.9166 37.4166 33.6701 37.4166 35.8333H38.1666H38.9166C38.9166 32.8417 36.4915 30.4166 33.4999 30.4166V31.1666ZM26.4999 31.1666V30.4166C23.5084 30.4166 21.0833 32.8417 21.0833 35.8333H21.8333H22.5833C22.5833 33.6701 24.3368 31.9166 26.4999 31.9166V31.1666Z" fill="#757575"/>
</svg>
