<svg width="20" height="20" viewBox="0 0 20 20" fill="none" xmlns="http://www.w3.org/2000/svg">
<path d="M10.7501 6.66747C10.7501 6.25326 10.4143 5.91747 10.0001 5.91747C9.58585 5.91747 9.25006 6.25326 9.25006 6.66747L10.0001 6.66747L10.7501 6.66747ZM12.5003 11.5845C12.9145 11.5845 13.2503 11.2487 13.2503 10.8345C13.2503 10.4203 12.9145 10.0845 12.5003 10.0845V10.8345V11.5845ZM2.0309 2.12315C1.70745 2.38191 1.65501 2.85388 1.91377 3.17732C2.17253 3.50077 2.6445 3.55321 2.96794 3.29445L2.49942 2.7088L2.0309 2.12315ZM5.05145 1.62764C5.3749 1.36889 5.42734 0.896917 5.16858 0.573471C4.90983 0.250024 4.43786 0.197583 4.11441 0.456341L4.58293 1.04199L5.05145 1.62764ZM17.0322 3.29445C17.3556 3.55321 17.8276 3.50077 18.0864 3.17732C18.3451 2.85388 18.2927 2.38191 17.9692 2.12315L17.5007 2.7088L17.0322 3.29445ZM15.8857 0.456341C15.5623 0.197583 15.0903 0.250024 14.8315 0.573471C14.5728 0.896917 14.6252 1.36889 14.9487 1.62764L15.4172 1.04199L15.8857 0.456341ZM10.0001 9.58439L9.25006 9.58439L10.0001 9.58439ZM10.0001 6.66747L9.25006 6.66747L9.25006 9.58439L10.0001 9.58439L10.7501 9.58439L10.7501 6.66747L10.0001 6.66747ZM18.3341 10.0011H17.5841C17.5841 14.1896 14.1886 17.5851 10.0001 17.5851V18.3351V19.0851C15.017 19.0851 19.0841 15.0181 19.0841 10.0011H18.3341ZM10.0001 18.3351V17.5851C5.81151 17.5851 2.41602 14.1896 2.41602 10.0011H1.66602H0.916016C0.916016 15.0181 4.98308 19.0851 10.0001 19.0851V18.3351ZM1.66602 10.0011H2.41602C2.41602 5.81254 5.81151 2.41705 10.0001 2.41705V1.66705V0.917046C4.98308 0.917046 0.916016 4.98411 0.916016 10.0011H1.66602ZM10.0001 1.66705V2.41705C14.1886 2.41705 17.5841 5.81254 17.5841 10.0011H18.3341H19.0841C19.0841 4.98411 15.017 0.917046 10.0001 0.917046V1.66705ZM2.49942 2.7088L2.96794 3.29445L5.05145 1.62764L4.58293 1.04199L4.11441 0.456341L2.0309 2.12315L2.49942 2.7088ZM17.5007 2.7088L17.9692 2.12315L15.8857 0.456341L15.4172 1.04199L14.9487 1.62764L17.0322 3.29445L17.5007 2.7088ZM11.2502 10.8345V11.5845H12.5003V10.8345V10.0845H11.2502V10.8345ZM10.0001 9.58439L9.25006 9.58439C9.25006 10.689 10.1455 11.5845 11.2502 11.5845V10.8345V10.0845C10.974 10.0845 10.7501 9.86059 10.7501 9.58439L10.0001 9.58439Z" fill="#0E4466"/>
</svg>
