<svg width="60" height="60" viewBox="0 0 60 60" fill="none" xmlns="http://www.w3.org/2000/svg">
<path fill-rule="evenodd" clip-rule="evenodd" d="M28.9493 17.4585C24.9878 17.4585 21.9228 20.9305 22.4142 24.8614L22.5067 25.6021C22.6422 26.6859 22.2463 27.7684 21.4436 28.5091C19.7804 30.044 19.3182 32.4869 20.306 34.5232L20.4266 34.7718C21.3473 36.6699 23.2715 37.8752 25.3811 37.8752H34.972C36.7917 37.8752 38.4852 36.9455 39.4623 35.4104C40.8414 33.2434 40.4761 30.4006 38.594 28.6526L38.5427 28.6051C37.6811 27.8049 37.2569 26.6391 37.4028 25.4723L37.4781 24.8693C37.97 20.9342 34.9017 17.4585 30.9361 17.4585H28.9493ZM24.1506 24.6444C23.7898 21.758 26.0405 19.2085 28.9493 19.2085H30.9361C33.8491 19.2085 36.103 21.7616 35.7417 24.6522L35.6663 25.2553C35.4506 26.9805 36.0779 28.7042 37.3519 29.8874L37.4031 29.9349C38.6664 31.1082 38.9116 33.0163 37.9859 34.4708C37.3301 35.5012 36.1934 36.1252 34.972 36.1252H25.3811C23.9419 36.1252 22.6292 35.3029 22.0011 34.0081L21.8805 33.7595C21.2295 32.4172 21.5341 30.8069 22.6304 29.7952C23.8482 28.6715 24.4487 27.0292 24.2432 25.385L24.1506 24.6444Z" fill="#757575"/>
<path d="M27.4133 39.9752C27.1234 39.5886 26.5749 39.5102 26.1883 39.8002C25.8017 40.0901 25.7234 40.6386 26.0133 41.0252L26.3633 41.4918C28.2883 44.0585 32.1383 44.0585 34.0633 41.4918L34.4133 41.0252C34.7033 40.6386 34.6249 40.0901 34.2383 39.8002C33.8517 39.5102 33.3033 39.5886 33.0133 39.9752L32.6633 40.4418C31.4383 42.0752 28.9883 42.0752 27.7633 40.4418L27.4133 39.9752Z" fill="#757575"/>
<path fill-rule="evenodd" clip-rule="evenodd" d="M28.9493 17.4585C24.9878 17.4585 21.9228 20.9305 22.4142 24.8614L22.5067 25.6021C22.6422 26.6859 22.2463 27.7684 21.4436 28.5091C19.7804 30.044 19.3182 32.4869 20.306 34.5232L20.4266 34.7718C21.3473 36.6699 23.2715 37.8752 25.3811 37.8752H34.972C36.7917 37.8752 38.4852 36.9455 39.4623 35.4104C40.8414 33.2434 40.4761 30.4006 38.594 28.6526L38.5427 28.6051C37.6811 27.8049 37.2569 26.6391 37.4028 25.4723L37.4781 24.8693C37.97 20.9342 34.9017 17.4585 30.9361 17.4585H28.9493ZM24.1506 24.6444C23.7898 21.758 26.0405 19.2085 28.9493 19.2085H30.9361C33.8491 19.2085 36.103 21.7616 35.7417 24.6522L35.6663 25.2553C35.4506 26.9805 36.0779 28.7042 37.3519 29.8874L37.4031 29.9349C38.6664 31.1082 38.9116 33.0163 37.9859 34.4708C37.3301 35.5012 36.1934 36.1252 34.972 36.1252H25.3811C23.9419 36.1252 22.6292 35.3029 22.0011 34.0081L21.8805 33.7595C21.2295 32.4172 21.5341 30.8069 22.6304 29.7952C23.8482 28.6715 24.4487 27.0292 24.2432 25.385L24.1506 24.6444Z" stroke="#757575"/>
<path d="M27.4133 39.9752C27.1234 39.5886 26.5749 39.5102 26.1883 39.8002C25.8017 40.0901 25.7234 40.6386 26.0133 41.0252L26.3633 41.4918C28.2883 44.0585 32.1383 44.0585 34.0633 41.4918L34.4133 41.0252C34.7033 40.6386 34.6249 40.0901 34.2383 39.8002C33.8517 39.5102 33.3033 39.5886 33.0133 39.9752L32.6633 40.4418C31.4383 42.0752 28.9883 42.0752 27.7633 40.4418L27.4133 39.9752Z" stroke="#757575"/>
</svg>
