<svg width="20" height="20" viewBox="0 0 20 20" fill="none" xmlns="http://www.w3.org/2000/svg">
<path d="M8.33333 17.5V16.75V17.5ZM7.5 17.5V18.25V17.5ZM2.5 12.5H3.25H2.5ZM2.5 7.5H1.75H2.5ZM7.5 2.5V1.75V2.5ZM8.33333 2.5V3.25V2.5ZM2.5513 6.01486L1.81053 5.89753L1.81053 5.89753L2.5513 6.01486ZM6.01486 2.5513L6.13218 3.29206L6.01486 2.5513ZM6.01486 17.4487L5.89753 18.1895H5.89753L6.01486 17.4487ZM2.5513 13.9851L1.81053 14.1025L1.81053 14.1025L2.5513 13.9851ZM11.2838 17.2666C11.615 17.0179 11.6818 16.5477 11.433 16.2165C11.1842 15.8853 10.7141 15.8185 10.3829 16.0673L10.8333 16.667L11.2838 17.2666ZM10.3829 3.9327C10.7141 4.18147 11.1842 4.11465 11.433 3.78346C11.6818 3.45227 11.615 2.98212 11.2838 2.73335L10.8333 3.33303L10.3829 3.9327ZM5.83333 9.25C5.41912 9.25 5.08333 9.58579 5.08333 10C5.08333 10.4142 5.41912 10.75 5.83333 10.75V10V9.25ZM16.6667 10V10.75V10ZM14.6326 6.07898C14.3081 5.82164 13.8363 5.87613 13.579 6.2007C13.3216 6.52526 13.3761 6.997 13.7007 7.25435L14.1667 6.66667L14.6326 6.07898ZM15.6358 7.83154L16.1018 7.24385L15.6358 7.83154ZM15.6358 12.1685L16.1018 12.7561V12.7561L15.6358 12.1685ZM13.7007 12.7456C13.3761 13.003 13.3216 13.4747 13.579 13.7993C13.8363 14.1239 14.3081 14.1784 14.6326 13.921L14.1667 13.3333L13.7007 12.7456ZM17.4834 9.79111L18.2241 9.67311V9.6731L17.4834 9.79111ZM17.4834 10.2089L18.2241 10.3269V10.3269L17.4834 10.2089ZM17.5 10L18.25 10L17.5 10ZM8.33333 17.5V16.75H7.5V17.5V18.25H8.33333V17.5ZM2.5 12.5H3.25L3.25 7.5H2.5H1.75L1.75 12.5H2.5ZM7.5 2.5V3.25L8.33333 3.25V2.5V1.75L7.5 1.75V2.5ZM2.5 7.5H3.25C3.25 6.69717 3.25233 6.38307 3.29206 6.13218L2.5513 6.01486L1.81053 5.89753C1.74767 6.29441 1.75 6.75449 1.75 7.5H2.5ZM7.5 2.5V1.75C6.75449 1.75 6.29441 1.74767 5.89753 1.81053L6.01486 2.5513L6.13218 3.29206C6.38307 3.25233 6.69717 3.25 7.5 3.25V2.5ZM2.5513 6.01486L3.29206 6.13218C3.52362 4.67022 4.67022 3.52362 6.13218 3.29206L6.01486 2.5513L5.89753 1.81053C3.79373 2.14374 2.14374 3.79373 1.81053 5.89753L2.5513 6.01486ZM7.5 17.5V16.75C6.69717 16.75 6.38307 16.7477 6.13218 16.7079L6.01486 17.4487L5.89753 18.1895C6.29441 18.2523 6.75449 18.25 7.5 18.25V17.5ZM2.5 12.5H1.75C1.75 13.2455 1.74767 13.7056 1.81053 14.1025L2.5513 13.9851L3.29206 13.8678C3.25233 13.6169 3.25 13.3028 3.25 12.5H2.5ZM6.01486 17.4487L6.13218 16.7079C4.67022 16.4764 3.52362 15.3298 3.29206 13.8678L2.5513 13.9851L1.81053 14.1025C2.14374 16.2063 3.79373 17.8563 5.89753 18.1895L6.01486 17.4487ZM8.33333 17.5L8.33333 18.25C9.43932 18.25 10.462 17.8839 11.2838 17.2666L10.8333 16.667L10.3829 16.0673C9.81194 16.4962 9.10336 16.75 8.33333 16.75V17.5ZM8.33333 2.5V3.25C9.10336 3.25 9.81194 3.50384 10.3829 3.9327L10.8333 3.33303L11.2838 2.73335C10.462 2.11607 9.43932 1.75 8.33333 1.75V2.5ZM5.83333 10V10.75L16.6667 10.75V10V9.25L5.83333 9.25V10ZM14.1667 6.66667L13.7007 7.25435L15.1698 8.41922L15.6358 7.83154L16.1018 7.24385L14.6326 6.07898L14.1667 6.66667ZM15.6358 12.1685L15.1698 11.5808L13.7007 12.7456L14.1667 13.3333L14.6326 13.921L16.1018 12.7561L15.6358 12.1685ZM15.6358 7.83154L15.1698 8.41922C15.77 8.89509 16.169 9.21289 16.4358 9.47874C16.6994 9.74124 16.7349 9.85955 16.7428 9.90912L17.4834 9.79111L18.2241 9.6731C18.1418 9.15655 17.8393 8.75955 17.4945 8.41604C17.153 8.07587 16.6732 7.69695 16.1018 7.24385L15.6358 7.83154ZM15.6358 12.1685L16.1018 12.7561C16.6732 12.303 17.153 11.9241 17.4945 11.584C17.8393 11.2405 18.1418 10.8435 18.2241 10.3269L17.4834 10.2089L16.7428 10.0909C16.7349 10.1405 16.6994 10.2588 16.4358 10.5213C16.169 10.7871 15.77 11.1049 15.1698 11.5808L15.6358 12.1685ZM17.4834 9.79111L16.7428 9.90912C16.7476 9.93959 16.75 9.9699 16.75 10L17.5 10L18.25 10C18.25 9.89057 18.2413 9.78134 18.2241 9.67311L17.4834 9.79111ZM17.5 10L16.75 10C16.75 10.0301 16.7476 10.0604 16.7428 10.0909L17.4834 10.2089L18.2241 10.3269C18.2413 10.2187 18.25 10.1094 18.25 10L17.5 10ZM16.6667 10V10.75H17.5V10V9.25H16.6667V10Z" fill="#DC1919"/>
</svg>
