<svg width="20" height="20" viewBox="0 0 20 20" fill="none" xmlns="http://www.w3.org/2000/svg">
<path d="M9.7237 15.7922L10.1596 16.4025V16.4025L9.7237 15.7922ZM9.76789 15.7608L9.33587 15.1477L9.76789 15.7608ZM12.1413 15.0002L12.1461 15.7502L12.1413 15.0002ZM6.1626 16.2586L6.85896 16.5372L6.1626 16.2586ZM7.54808 17.3462L7.11215 16.7359L7.54808 17.3462ZM18.1643 12.0058L18.884 12.2168L18.1643 12.0058ZM15.3384 14.8317L15.5494 15.5514L15.3384 14.8317ZM3.94106 2.12089L4.28155 2.78914L3.94106 2.12089ZM2.12016 3.94179L2.78841 4.28228L2.12016 3.94179ZM16.0576 2.12089L15.7172 2.78914L16.0576 2.12089ZM17.8785 3.94179L17.2103 4.28228L17.8785 3.94179ZM6.66602 9.25008C6.2518 9.25008 5.91602 9.58587 5.91602 10.0001C5.91602 10.4143 6.2518 10.7501 6.66602 10.7501V10.0001V9.25008ZM13.3327 10.7501C13.7469 10.7501 14.0827 10.4143 14.0827 10.0001C14.0827 9.58587 13.7469 9.25008 13.3327 9.25008V10.0001V10.7501ZM6.66602 5.91675C6.2518 5.91675 5.91602 6.25253 5.91602 6.66675C5.91602 7.08096 6.2518 7.41675 6.66602 7.41675V6.66675L6.66602 5.91675ZM9.99935 7.41675C10.4136 7.41675 10.7493 7.08096 10.7493 6.66675C10.7493 6.25254 10.4136 5.91675 9.99935 5.91675V6.66675V7.41675ZM11.666 1.66675V0.916748H8.33268V1.66675V2.41675H11.666V1.66675ZM1.66602 8.33342H0.916016V11.857H1.66602H2.41602V8.33342H1.66602ZM18.3327 9.32026H19.0827V8.33342H18.3327H17.5827V9.32026H18.3327ZM4.80906 15.0001V15.7501H5.31053V15.0001V14.2501H4.80906V15.0001ZM7.54808 17.3462L7.98401 17.9565L10.1596 16.4025L9.7237 15.7922L9.28777 15.1819L7.11215 16.7359L7.54808 17.3462ZM12.1955 15.0001V15.7501H12.6529V15.0001V14.2501H12.1955V15.0001ZM9.7237 15.7922L10.1596 16.4025C10.1826 16.3861 10.1914 16.3798 10.1999 16.3738L9.76789 15.7608L9.33587 15.1477C9.32255 15.1571 9.30919 15.1666 9.28777 15.1819L9.7237 15.7922ZM12.1955 15.0001V14.2501C12.1692 14.2501 12.1528 14.2501 12.1365 14.2502L12.1413 15.0002L12.1461 15.7502C12.1565 15.7501 12.1673 15.7501 12.1955 15.7501V15.0001ZM9.76789 15.7608L10.1999 16.3738C10.7698 15.9722 11.4489 15.7546 12.1461 15.7502L12.1413 15.0002L12.1365 14.2502C11.1332 14.2566 10.156 14.5698 9.33587 15.1477L9.76789 15.7608ZM5.31053 15.0001V15.7501C5.42917 15.7501 5.51031 15.8699 5.46624 15.9801L6.1626 16.2586L6.85896 16.5372C7.29714 15.4417 6.49037 14.2501 5.31053 14.2501V15.0001ZM6.1626 16.2586L5.46624 15.9801C4.84766 17.5265 6.62867 18.9246 7.98401 17.9565L7.54808 17.3462L7.11215 16.7359C7.06468 16.7698 7.03191 16.773 7.01019 16.7718C6.98199 16.7703 6.94572 16.7585 6.91112 16.7314C6.87651 16.7042 6.85649 16.6718 6.84829 16.6447C6.84198 16.6239 6.83729 16.5913 6.85896 16.5372L6.1626 16.2586ZM18.3327 9.32026H17.5827C17.5827 10.7807 17.575 11.35 17.4446 11.7948L18.1643 12.0058L18.884 12.2168C19.0903 11.5133 19.0827 10.6751 19.0827 9.32026H18.3327ZM12.6529 15.0001V15.7501C14.0077 15.7501 14.8459 15.7577 15.5494 15.5514L15.3384 14.8317L15.1274 14.112C14.6826 14.2424 14.1133 14.2501 12.6529 14.2501V15.0001ZM18.1643 12.0058L17.4446 11.7948C17.1172 12.9114 16.244 13.7846 15.1274 14.112L15.3384 14.8317L15.5494 15.5514C17.1563 15.0803 18.4129 13.8237 18.884 12.2168L18.1643 12.0058ZM1.66602 11.857H0.916016C0.916016 14.0071 2.65899 15.7501 4.80906 15.7501V15.0001V14.2501C3.48742 14.2501 2.41602 13.1787 2.41602 11.857H1.66602ZM8.33268 1.66675V0.916748C7.17828 0.916748 6.26738 0.916165 5.53495 0.976006C4.79377 1.03656 4.16956 1.16271 3.60056 1.45263L3.94106 2.12089L4.28155 2.78914C4.60385 2.62492 5.00868 2.524 5.6571 2.47102C6.31427 2.41733 7.15353 2.41675 8.33268 2.41675V1.66675ZM1.66602 8.33342H2.41602C2.41602 7.15426 2.4166 6.31501 2.47029 5.65783C2.52327 5.00941 2.62419 4.60458 2.78841 4.28228L2.12016 3.94179L1.4519 3.60129C1.16198 4.1703 1.03583 4.7945 0.975274 5.53568C0.915432 6.26811 0.916016 7.17901 0.916016 8.33342H1.66602ZM3.94106 2.12089L3.60056 1.45263C2.67543 1.92401 1.92328 2.67616 1.4519 3.60129L2.12016 3.94179L2.78841 4.28228C3.11598 3.63939 3.63866 3.11671 4.28155 2.78914L3.94106 2.12089ZM11.666 1.66675V2.41675C12.8452 2.41675 13.6844 2.41733 14.3416 2.47102C14.99 2.524 15.3949 2.62492 15.7172 2.78914L16.0576 2.12089L16.3981 1.45263C15.8291 1.16271 15.2049 1.03656 14.4637 0.976006C13.7313 0.916165 12.8204 0.916748 11.666 0.916748V1.66675ZM18.3327 8.33342H19.0827C19.0827 7.17901 19.0833 6.26811 19.0234 5.53568C18.9629 4.7945 18.8367 4.1703 18.5468 3.60129L17.8785 3.94179L17.2103 4.28228C17.3745 4.60458 17.4754 5.00941 17.5284 5.65783C17.5821 6.31501 17.5827 7.15426 17.5827 8.33342H18.3327ZM16.0576 2.12089L15.7172 2.78914C16.36 3.11671 16.8827 3.63939 17.2103 4.28228L17.8785 3.94179L18.5468 3.60129C18.0754 2.67616 17.3233 1.92401 16.3981 1.45263L16.0576 2.12089ZM6.66602 10.0001V10.7501H13.3327V10.0001V9.25008H6.66602V10.0001ZM6.66602 6.66675V7.41675L9.99935 7.41675V6.66675V5.91675H6.66602L6.66602 6.66675Z" fill="#757575"/>
</svg>
