<svg width="60" height="60" viewBox="0 0 60 60" fill="none" xmlns="http://www.w3.org/2000/svg">
<path d="M34.6673 23.0002H33.9173C33.9173 25.1633 32.1638 26.9168 30.0007 26.9168V27.6668V28.4168C32.9922 28.4168 35.4173 25.9917 35.4173 23.0002H34.6673ZM30.0007 27.6668V26.9168C27.8375 26.9168 26.084 25.1633 26.084 23.0002H25.334H24.584C24.584 25.9917 27.0091 28.4168 30.0007 28.4168V27.6668ZM25.334 23.0002H26.084C26.084 20.837 27.8375 19.0835 30.0007 19.0835V18.3335V17.5835C27.0091 17.5835 24.584 20.0086 24.584 23.0002H25.334ZM30.0007 18.3335V19.0835C32.1638 19.0835 33.9173 20.837 33.9173 23.0002H34.6673H35.4173C35.4173 20.0086 32.9922 17.5835 30.0007 17.5835V18.3335ZM26.5007 31.1668V31.9168H33.5007V31.1668V30.4168H26.5007V31.1668ZM33.5007 40.5002V39.7502H26.5007V40.5002V41.2502H33.5007V40.5002ZM26.5007 40.5002V39.7502C24.3375 39.7502 22.584 37.9966 22.584 35.8335H21.834H21.084C21.084 38.825 23.5091 41.2502 26.5007 41.2502V40.5002ZM38.1673 35.8335H37.4173C37.4173 37.9966 35.6638 39.7502 33.5007 39.7502V40.5002V41.2502C36.4922 41.2502 38.9173 38.825 38.9173 35.8335H38.1673ZM33.5007 31.1668V31.9168C35.6638 31.9168 37.4173 33.6704 37.4173 35.8335H38.1673H38.9173C38.9173 32.842 36.4922 30.4168 33.5007 30.4168V31.1668ZM26.5007 31.1668V30.4168C23.5091 30.4168 21.084 32.842 21.084 35.8335H21.834H22.584C22.584 33.6704 24.3375 31.9168 26.5007 31.9168V31.1668Z" fill="#757575"/>
</svg>
