<svg width="20" height="21" viewBox="0 0 20 21" fill="none" xmlns="http://www.w3.org/2000/svg">
<path d="M0.75 4.22246C0.75 2.30467 2.30467 0.75 4.22246 0.75H15.3342C17.2207 0.75 18.75 2.27929 18.75 4.16577C18.75 5.17052 18.3076 6.12431 17.5406 6.77332L14.0203 9.75206C12.8975 10.7021 12.25 12.0982 12.25 13.569V15.3496C12.25 16.2295 11.829 17.0562 11.1175 17.5737L9.17621 18.9855C8.16646 19.7198 6.75 18.9985 6.75 17.75V13.4495C6.75 12.048 6.16177 10.7108 5.12862 9.76374L1.87603 6.7822C1.15852 6.12448 0.75 5.19581 0.75 4.22246Z" stroke="#0E4466" stroke-width="1.5"/>
</svg>
